M48
METRIC,LZ,000.000
;FILE_FORMAT=3:3
;TYPE=PLATED
;Layer: PTH_Through
;EasyEDA v6.5.51, 2025-11-27 18:45:45
;165794e495e04085a6bddc9ff9194116,e0a4688c9a4c477ab9b1abdd6ae47455,10
;Gerber Generator version 0.2
;Holesize 1 = 0.889 mm
T01C0.889
;Holesize 2 = 0.901 mm
T02C0.901
;Holesize 3 = 0.915 mm
T03C0.915
;Holesize 4 = 1.101 mm
T04C1.101
%
G05
G90
T01
X016510Y073660
X019050Y073660
X086360Y031750
X086360Y029210
X109220Y060960
X109220Y058420
X109220Y055880
X109220Y053340
X109220Y050800
X109220Y048260
X109220Y045720
X109220Y043180
X109220Y073660
X109220Y076200
X109220Y078740
T02
X031750Y064770
X029210Y064770
X026670Y064770
X024130Y064770
X021590Y064770
X019050Y064770
X016510Y064770
X013970Y064770
X013970Y041910
X016510Y041910
X019050Y041910
X021590Y041910
X024130Y041910
X026670Y041910
X029210Y041910
X031750Y041910
T03
X053317Y073660G85X053363Y073660
X053337Y071120G85X053342Y071120
X053337Y068580G85X053342Y068580
X053337Y066040G85X053342Y066040
X053337Y063500G85X053342Y063500
X053337Y060960G85X053342Y060960
X053337Y058420G85X053342Y058420
X053337Y055880G85X053342Y055880
X053337Y053340G85X053342Y053340
X053337Y050800G85X053342Y050800
X053337Y048260G85X053342Y048260
X053337Y045720G85X053342Y045720
X053337Y043180G85X053342Y043180
X053337Y040640G85X053342Y040640
X053337Y038100G85X053342Y038100
X078737Y038100G85X078742Y038100
X078737Y040640G85X078742Y040640
X078737Y043180G85X078742Y043180
X078737Y045720G85X078742Y045720
X078737Y048260G85X078742Y048260
X078737Y050800G85X078742Y050800
X078737Y053340G85X078742Y053340
X078737Y055880G85X078742Y055880
X078737Y058420G85X078742Y058420
X078737Y060960G85X078742Y060960
X078737Y063500G85X078742Y063500
X078737Y066040G85X078742Y066040
X078737Y068580G85X078742Y068580
X078737Y071120G85X078742Y071120
X078737Y073660G85X078742Y073660
T04
X036830Y030480
X039370Y030480
X039370Y076200
X041910Y076200
M30
