G04 Layer: TopLayer*
G04 EasyEDA v6.5.51, 2025-11-27 18:45:45*
G04 165794e495e04085a6bddc9ff9194116,e0a4688c9a4c477ab9b1abdd6ae47455,10*
G04 Gerber Generator version 0.2*
G04 Scale: 100 percent, Rotated: No, Reflected: No *
G04 Dimensions in millimeters *
G04 leading zeros omitted , absolute positions ,4 integer and 5 decimal *
%FSLAX45Y45*%
%MOMM*%

%ADD10C,0.8000*%
%ADD11R,1.7000X1.5748*%
%ADD12C,1.7000*%
%ADD13R,1.5748X1.5748*%
%ADD14C,1.5748*%
%ADD15R,1.5240X1.5240*%
%ADD16R,0.0193X1.5240*%
%ADD17C,1.5240*%
%ADD18C,1.5000*%

%LPD*%
G36*
X747268Y1689607D02*
G01*
X743356Y1690370D01*
X740105Y1692605D01*
X737870Y1695856D01*
X737108Y1699768D01*
X737108Y8917432D01*
X737870Y8921343D01*
X740105Y8924594D01*
X743356Y8926830D01*
X747268Y8927592D01*
X11597132Y8927592D01*
X11601043Y8926830D01*
X11604294Y8924594D01*
X11606530Y8921343D01*
X11607292Y8917432D01*
X11607292Y1699768D01*
X11606530Y1695856D01*
X11604294Y1692605D01*
X11601043Y1690370D01*
X11597132Y1689607D01*
G37*

%LPC*%
G36*
X1016304Y2672232D02*
G01*
X4063695Y2672232D01*
X4078681Y2673096D01*
X4093159Y2675788D01*
X4107179Y2680157D01*
X4120591Y2686202D01*
X4133189Y2693771D01*
X4144772Y2702864D01*
X4155135Y2713228D01*
X4164228Y2724810D01*
X4171797Y2737408D01*
X4177842Y2750820D01*
X4182211Y2764840D01*
X4184904Y2779318D01*
X4185767Y2794000D01*
X4184904Y2808681D01*
X4182211Y2823159D01*
X4177842Y2837230D01*
X4172813Y2848711D01*
X4098493Y2997352D01*
X4097477Y3000908D01*
X4097782Y3004566D01*
X4100017Y3012744D01*
X4102811Y3030270D01*
X4103268Y3038348D01*
X4104132Y3041954D01*
X4106214Y3045002D01*
X4746498Y3685286D01*
X4749800Y3687470D01*
X4753660Y3688232D01*
X5230114Y3688232D01*
X5233365Y3687724D01*
X5236260Y3686149D01*
X5245303Y3679291D01*
X5259984Y3670452D01*
X5275478Y3663289D01*
X5291734Y3657803D01*
X5308396Y3654145D01*
X5315204Y3653383D01*
X5318506Y3652469D01*
X5321300Y3650487D01*
X6136792Y2834995D01*
X6142228Y2829864D01*
X6147917Y2825140D01*
X6153810Y2820771D01*
X6160008Y2816758D01*
X6166408Y2813151D01*
X6173012Y2809951D01*
X6179820Y2807106D01*
X6186779Y2804718D01*
X6193840Y2802737D01*
X6201054Y2801213D01*
X6208318Y2800096D01*
X6215634Y2799435D01*
X6223152Y2799232D01*
X8527948Y2799232D01*
X8531199Y2798673D01*
X8534095Y2797149D01*
X8545931Y2788158D01*
X8560816Y2779166D01*
X8576564Y2771902D01*
X8593074Y2766314D01*
X8610041Y2762605D01*
X8627313Y2760726D01*
X8644686Y2760726D01*
X8661958Y2762605D01*
X8678926Y2766314D01*
X8695436Y2771902D01*
X8711184Y2779166D01*
X8726068Y2788158D01*
X8737904Y2797149D01*
X8740800Y2798673D01*
X8744051Y2799232D01*
X9270949Y2799232D01*
X9286951Y2800299D01*
X9301378Y2803093D01*
X9315399Y2807614D01*
X9329013Y2813913D01*
X10979607Y3702710D01*
X10984941Y3705758D01*
X10992307Y3710533D01*
X10997082Y3714089D01*
X11003737Y3719728D01*
X11008207Y3723995D01*
X11262004Y3977792D01*
X11267135Y3983228D01*
X11271859Y3988917D01*
X11276228Y3994810D01*
X11280241Y4001008D01*
X11283848Y4007408D01*
X11287048Y4014012D01*
X11289893Y4020820D01*
X11292281Y4027779D01*
X11294262Y4034840D01*
X11295786Y4042054D01*
X11296904Y4049318D01*
X11297564Y4056634D01*
X11297767Y4064152D01*
X11297767Y7365695D01*
X11296904Y7380681D01*
X11294211Y7395159D01*
X11289842Y7409180D01*
X11283797Y7422591D01*
X11276228Y7435189D01*
X11267135Y7446772D01*
X11256772Y7457135D01*
X11245189Y7466228D01*
X11232591Y7473797D01*
X11219180Y7479842D01*
X11205159Y7484211D01*
X11190681Y7486903D01*
X11175695Y7487767D01*
X11041126Y7487767D01*
X11037316Y7488529D01*
X11034014Y7490714D01*
X11031829Y7493914D01*
X11031016Y7497775D01*
X11031677Y7501636D01*
X11033760Y7504938D01*
X11044326Y7516063D01*
X11054842Y7529931D01*
X11063833Y7544816D01*
X11071098Y7560564D01*
X11076686Y7577074D01*
X11080394Y7594041D01*
X11082274Y7611313D01*
X11082274Y7628686D01*
X11080394Y7645958D01*
X11076686Y7662925D01*
X11071098Y7679436D01*
X11063833Y7695184D01*
X11054842Y7710068D01*
X11049508Y7717129D01*
X11047780Y7720685D01*
X11047526Y7724648D01*
X11048847Y7728407D01*
X11051489Y7731404D01*
X11054283Y7733487D01*
X11062512Y7741716D01*
X11069523Y7751064D01*
X11075111Y7761274D01*
X11079175Y7772247D01*
X11081664Y7783626D01*
X11082528Y7795615D01*
X11082528Y7828280D01*
X10967720Y7828280D01*
X10967720Y7786878D01*
X10966805Y7782610D01*
X10964113Y7779156D01*
X10960303Y7777073D01*
X10955934Y7776870D01*
X10939373Y7779562D01*
X10922000Y7780528D01*
X10904626Y7779562D01*
X10888065Y7776870D01*
X10883696Y7777073D01*
X10879886Y7779156D01*
X10877194Y7782610D01*
X10876280Y7786878D01*
X10876280Y7828280D01*
X10761472Y7828280D01*
X10761472Y7795615D01*
X10762335Y7783626D01*
X10764824Y7772247D01*
X10768888Y7761274D01*
X10771327Y7756804D01*
X10772546Y7752842D01*
X10772038Y7748676D01*
X10769904Y7745069D01*
X10766501Y7742631D01*
X10762437Y7741767D01*
X6604304Y7741767D01*
X6589318Y7740903D01*
X6574840Y7738211D01*
X6560820Y7733842D01*
X6547408Y7727797D01*
X6534810Y7720228D01*
X6523228Y7711135D01*
X6512864Y7700772D01*
X6503771Y7689189D01*
X6496202Y7676591D01*
X6490157Y7663180D01*
X6485788Y7649159D01*
X6483096Y7634681D01*
X6482232Y7619695D01*
X6482232Y4449927D01*
X6481419Y4446066D01*
X6479235Y4442764D01*
X6475933Y4440580D01*
X6472072Y4439767D01*
X5891733Y4439767D01*
X5887872Y4440529D01*
X5884621Y4442714D01*
X5882386Y4445914D01*
X5881573Y4449775D01*
X5882233Y4453636D01*
X5884367Y4456938D01*
X5887567Y4459224D01*
X5898591Y4464202D01*
X5911189Y4471771D01*
X5922772Y4480864D01*
X5933135Y4491228D01*
X5942228Y4502810D01*
X5949797Y4515408D01*
X5955842Y4528820D01*
X5960211Y4542840D01*
X5962904Y4557318D01*
X5963767Y4572304D01*
X5963767Y7619695D01*
X5962904Y7634681D01*
X5960211Y7649159D01*
X5955842Y7663180D01*
X5949797Y7676591D01*
X5942228Y7689189D01*
X5933135Y7700772D01*
X5922772Y7711135D01*
X5911189Y7720228D01*
X5898591Y7727797D01*
X5885180Y7733842D01*
X5871159Y7738211D01*
X5856681Y7740903D01*
X5841695Y7741767D01*
X4308754Y7741767D01*
X4304944Y7742529D01*
X4300829Y7745526D01*
X4286859Y7756448D01*
X4271822Y7765897D01*
X4255820Y7773670D01*
X4239158Y7779664D01*
X4221886Y7783880D01*
X4204309Y7786217D01*
X4186580Y7786725D01*
X4168851Y7785303D01*
X4151426Y7782001D01*
X4134408Y7776870D01*
X4118051Y7769961D01*
X4102557Y7761376D01*
X4093159Y7754823D01*
X4089958Y7753299D01*
X4086453Y7752994D01*
X4083050Y7753908D01*
X4080154Y7755940D01*
X4075531Y7760512D01*
X4066184Y7767523D01*
X4055973Y7773111D01*
X4045051Y7777175D01*
X4033621Y7779664D01*
X4021632Y7780528D01*
X3985869Y7780528D01*
X3985869Y7665720D01*
X4017924Y7665720D01*
X4022293Y7664703D01*
X4025798Y7661960D01*
X4027779Y7657896D01*
X4027830Y7653426D01*
X4026357Y7646517D01*
X4024477Y7628890D01*
X4024477Y7611109D01*
X4026357Y7593482D01*
X4027830Y7586573D01*
X4027779Y7582103D01*
X4025798Y7578039D01*
X4022293Y7575296D01*
X4017924Y7574280D01*
X3985869Y7574280D01*
X3985869Y7459472D01*
X4021632Y7459472D01*
X4033621Y7460335D01*
X4045051Y7462824D01*
X4055973Y7466888D01*
X4066184Y7472476D01*
X4075531Y7479487D01*
X4080154Y7484059D01*
X4083050Y7486091D01*
X4086453Y7487005D01*
X4089958Y7486700D01*
X4093159Y7485176D01*
X4102557Y7478623D01*
X4118051Y7470038D01*
X4134408Y7463129D01*
X4151426Y7457998D01*
X4168851Y7454696D01*
X4186580Y7453274D01*
X4204309Y7453782D01*
X4221886Y7456119D01*
X4239158Y7460335D01*
X4255820Y7466330D01*
X4271822Y7474102D01*
X4286859Y7483551D01*
X4300829Y7494473D01*
X4304944Y7497470D01*
X4308754Y7498232D01*
X5178298Y7498232D01*
X5182412Y7497368D01*
X5185765Y7494930D01*
X5187899Y7491323D01*
X5188407Y7487158D01*
X5187238Y7483195D01*
X5183378Y7476185D01*
X5179314Y7465263D01*
X5176824Y7453884D01*
X5176012Y7441844D01*
X5176012Y7290206D01*
X5176824Y7278166D01*
X5179314Y7266787D01*
X5183378Y7255865D01*
X5189016Y7245603D01*
X5195976Y7236307D01*
X5204256Y7228027D01*
X5208625Y7224775D01*
X5211318Y7221677D01*
X5212638Y7217765D01*
X5212232Y7213650D01*
X5210251Y7210044D01*
X5208219Y7207605D01*
X5198618Y7193483D01*
X5190591Y7178344D01*
X5184292Y7162444D01*
X5179669Y7145985D01*
X5176926Y7129119D01*
X5176012Y7112000D01*
X5176926Y7094931D01*
X5179669Y7078065D01*
X5184292Y7061606D01*
X5190591Y7045706D01*
X5198618Y7030567D01*
X5208219Y7016445D01*
X5219293Y7003389D01*
X5230876Y6992416D01*
X5233212Y6989064D01*
X5234076Y6985000D01*
X5233212Y6980986D01*
X5230876Y6977634D01*
X5219293Y6966661D01*
X5208219Y6953605D01*
X5198618Y6939483D01*
X5190591Y6924344D01*
X5184292Y6908444D01*
X5179669Y6891985D01*
X5176926Y6875119D01*
X5176012Y6858000D01*
X5176926Y6840931D01*
X5179669Y6824065D01*
X5184292Y6807606D01*
X5190591Y6791706D01*
X5198618Y6776567D01*
X5208219Y6762445D01*
X5219293Y6749389D01*
X5230876Y6738416D01*
X5233212Y6735064D01*
X5234076Y6731000D01*
X5233212Y6726986D01*
X5230876Y6723634D01*
X5219293Y6712661D01*
X5208219Y6699605D01*
X5198618Y6685483D01*
X5190591Y6670344D01*
X5184292Y6654444D01*
X5179669Y6637985D01*
X5176926Y6621119D01*
X5176012Y6604000D01*
X5176926Y6586931D01*
X5179669Y6570065D01*
X5184292Y6553606D01*
X5190591Y6537706D01*
X5198618Y6522567D01*
X5208219Y6508445D01*
X5219293Y6495389D01*
X5230876Y6484416D01*
X5233212Y6481064D01*
X5234076Y6477000D01*
X5233212Y6472986D01*
X5230876Y6469634D01*
X5219293Y6458661D01*
X5208219Y6445605D01*
X5198618Y6431483D01*
X5190591Y6416344D01*
X5184292Y6400444D01*
X5179669Y6383985D01*
X5176926Y6367119D01*
X5176012Y6350000D01*
X5176926Y6332931D01*
X5179669Y6316065D01*
X5184292Y6299606D01*
X5190591Y6283706D01*
X5198618Y6268567D01*
X5208219Y6254445D01*
X5219293Y6241389D01*
X5230876Y6230416D01*
X5233212Y6227064D01*
X5234076Y6223000D01*
X5233212Y6218986D01*
X5230876Y6215634D01*
X5219293Y6204661D01*
X5208219Y6191605D01*
X5198618Y6177483D01*
X5190591Y6162344D01*
X5184292Y6146444D01*
X5179669Y6129985D01*
X5176926Y6113119D01*
X5176012Y6096000D01*
X5176926Y6078931D01*
X5179669Y6062065D01*
X5184292Y6045606D01*
X5190591Y6029706D01*
X5198618Y6014567D01*
X5208219Y6000445D01*
X5219293Y5987389D01*
X5230876Y5976416D01*
X5233212Y5973064D01*
X5234076Y5969000D01*
X5233212Y5964986D01*
X5230876Y5961634D01*
X5219293Y5950661D01*
X5208219Y5937605D01*
X5198618Y5923483D01*
X5190591Y5908344D01*
X5184292Y5892444D01*
X5179669Y5875985D01*
X5176926Y5859119D01*
X5176012Y5842000D01*
X5176926Y5824931D01*
X5179669Y5808065D01*
X5184292Y5791606D01*
X5190591Y5775706D01*
X5198618Y5760567D01*
X5208219Y5746445D01*
X5219293Y5733389D01*
X5230876Y5722416D01*
X5233212Y5719064D01*
X5234076Y5715000D01*
X5233212Y5710986D01*
X5230876Y5707634D01*
X5219293Y5696661D01*
X5208219Y5683605D01*
X5198618Y5669483D01*
X5190591Y5654344D01*
X5184292Y5638444D01*
X5179669Y5621985D01*
X5176926Y5605119D01*
X5176012Y5588000D01*
X5176926Y5570931D01*
X5179669Y5554065D01*
X5184292Y5537606D01*
X5190591Y5521706D01*
X5198618Y5506567D01*
X5208219Y5492445D01*
X5219293Y5479389D01*
X5230876Y5468416D01*
X5233212Y5465064D01*
X5234076Y5461000D01*
X5233212Y5456986D01*
X5230876Y5453634D01*
X5219293Y5442661D01*
X5208219Y5429605D01*
X5198618Y5415483D01*
X5190591Y5400344D01*
X5184292Y5384444D01*
X5179669Y5367985D01*
X5176926Y5351119D01*
X5176012Y5334000D01*
X5176926Y5316931D01*
X5179669Y5300065D01*
X5184292Y5283606D01*
X5190591Y5267706D01*
X5198618Y5252567D01*
X5208219Y5238445D01*
X5219293Y5225389D01*
X5230876Y5214416D01*
X5233212Y5211064D01*
X5234076Y5207000D01*
X5233212Y5202986D01*
X5230876Y5199634D01*
X5219293Y5188661D01*
X5208219Y5175605D01*
X5198618Y5161483D01*
X5190591Y5146344D01*
X5184292Y5130444D01*
X5179669Y5113985D01*
X5176926Y5097119D01*
X5176012Y5080000D01*
X5176926Y5062931D01*
X5179669Y5046065D01*
X5184292Y5029606D01*
X5190591Y5013706D01*
X5198618Y4998567D01*
X5208219Y4984445D01*
X5219293Y4971389D01*
X5225643Y4965344D01*
X5227980Y4962093D01*
X5228844Y4958181D01*
X5228132Y4954219D01*
X5225897Y4950866D01*
X5222595Y4948580D01*
X5218684Y4947818D01*
X3610610Y4947818D01*
X3606749Y4948580D01*
X3603447Y4950764D01*
X2231085Y6323177D01*
X2228951Y6326276D01*
X2228088Y6329934D01*
X2228646Y6333642D01*
X2230526Y6336893D01*
X2233422Y6339281D01*
X2241092Y6343446D01*
X2255316Y6353302D01*
X2268321Y6364630D01*
X2278532Y6375704D01*
X2281936Y6378143D01*
X2286000Y6379006D01*
X2290064Y6378143D01*
X2293467Y6375704D01*
X2303678Y6364630D01*
X2316734Y6353302D01*
X2330907Y6343446D01*
X2346096Y6335217D01*
X2362098Y6328714D01*
X2378710Y6324041D01*
X2395778Y6321196D01*
X2413000Y6320231D01*
X2430272Y6321196D01*
X2447290Y6324041D01*
X2463901Y6328714D01*
X2479903Y6335217D01*
X2495092Y6343446D01*
X2509316Y6353302D01*
X2522321Y6364630D01*
X2532532Y6375704D01*
X2535936Y6378143D01*
X2540000Y6379006D01*
X2544064Y6378143D01*
X2547467Y6375704D01*
X2557678Y6364630D01*
X2570683Y6353302D01*
X2584907Y6343446D01*
X2600096Y6335217D01*
X2616098Y6328714D01*
X2632710Y6324041D01*
X2649778Y6321196D01*
X2667000Y6320231D01*
X2684221Y6321196D01*
X2701290Y6324041D01*
X2717901Y6328714D01*
X2733903Y6335217D01*
X2749092Y6343446D01*
X2763316Y6353302D01*
X2776321Y6364630D01*
X2786532Y6375704D01*
X2789936Y6378143D01*
X2794000Y6379006D01*
X2798064Y6378143D01*
X2801467Y6375704D01*
X2811678Y6364630D01*
X2824683Y6353302D01*
X2838907Y6343446D01*
X2854096Y6335217D01*
X2870098Y6328714D01*
X2886710Y6324041D01*
X2903778Y6321196D01*
X2921000Y6320231D01*
X2938221Y6321196D01*
X2955290Y6324041D01*
X2971901Y6328714D01*
X2987903Y6335217D01*
X3003092Y6343446D01*
X3017316Y6353302D01*
X3030321Y6364630D01*
X3040532Y6375704D01*
X3043936Y6378143D01*
X3048000Y6379006D01*
X3052064Y6378143D01*
X3055467Y6375704D01*
X3065678Y6364630D01*
X3078683Y6353302D01*
X3092907Y6343446D01*
X3108096Y6335217D01*
X3124098Y6328714D01*
X3140710Y6324041D01*
X3157778Y6321196D01*
X3175000Y6320231D01*
X3192221Y6321196D01*
X3209290Y6324041D01*
X3225901Y6328714D01*
X3241903Y6335217D01*
X3257092Y6343446D01*
X3271316Y6353302D01*
X3284321Y6364630D01*
X3296005Y6377330D01*
X3306267Y6391249D01*
X3314903Y6406184D01*
X3321812Y6422034D01*
X3326993Y6438493D01*
X3330295Y6455460D01*
X3331718Y6472682D01*
X3331260Y6489954D01*
X3328873Y6507073D01*
X3324606Y6523786D01*
X3318560Y6539992D01*
X3310788Y6555384D01*
X3301339Y6569862D01*
X3290315Y6583172D01*
X3277971Y6595211D01*
X3264306Y6605828D01*
X3249625Y6614871D01*
X3233978Y6622237D01*
X3217672Y6627875D01*
X3200806Y6631635D01*
X3183636Y6633514D01*
X3166364Y6633514D01*
X3149193Y6631635D01*
X3132328Y6627875D01*
X3116021Y6622237D01*
X3100374Y6614871D01*
X3085693Y6605828D01*
X3072028Y6595211D01*
X3059684Y6583172D01*
X3055823Y6578549D01*
X3052318Y6575806D01*
X3048000Y6574840D01*
X3043682Y6575806D01*
X3040176Y6578549D01*
X3036316Y6583172D01*
X3023971Y6595211D01*
X3010306Y6605828D01*
X2995625Y6614871D01*
X2979978Y6622237D01*
X2963672Y6627875D01*
X2946806Y6631635D01*
X2929636Y6633514D01*
X2912364Y6633514D01*
X2895193Y6631635D01*
X2878328Y6627875D01*
X2862021Y6622237D01*
X2846374Y6614871D01*
X2831693Y6605828D01*
X2818028Y6595211D01*
X2805684Y6583172D01*
X2801823Y6578549D01*
X2798318Y6575806D01*
X2794000Y6574840D01*
X2789682Y6575806D01*
X2786176Y6578549D01*
X2782316Y6583172D01*
X2769971Y6595211D01*
X2756306Y6605828D01*
X2741625Y6614871D01*
X2725978Y6622237D01*
X2709672Y6627875D01*
X2692806Y6631635D01*
X2675636Y6633514D01*
X2658364Y6633514D01*
X2641193Y6631635D01*
X2624328Y6627875D01*
X2608021Y6622237D01*
X2592374Y6614871D01*
X2577693Y6605828D01*
X2564028Y6595211D01*
X2551684Y6583172D01*
X2547823Y6578549D01*
X2544318Y6575806D01*
X2540000Y6574840D01*
X2535682Y6575806D01*
X2532176Y6578549D01*
X2528366Y6583172D01*
X2515971Y6595211D01*
X2502357Y6605828D01*
X2487625Y6614871D01*
X2471978Y6622237D01*
X2455672Y6627875D01*
X2438806Y6631635D01*
X2421636Y6633514D01*
X2404364Y6633514D01*
X2387193Y6631635D01*
X2370328Y6627875D01*
X2354021Y6622237D01*
X2338374Y6614871D01*
X2323693Y6605828D01*
X2310028Y6595211D01*
X2298039Y6583527D01*
X2294737Y6581394D01*
X2290876Y6580682D01*
X2287016Y6581444D01*
X2283714Y6583680D01*
X2281529Y6586931D01*
X2280767Y6590842D01*
X2280767Y7111847D01*
X2280564Y7119366D01*
X2279904Y7126681D01*
X2278786Y7133945D01*
X2277262Y7141159D01*
X2275281Y7148220D01*
X2272893Y7155180D01*
X2270048Y7161987D01*
X2266848Y7168591D01*
X2263241Y7174992D01*
X2259228Y7181189D01*
X2254859Y7187082D01*
X2250135Y7192772D01*
X2245004Y7198207D01*
X2067407Y7375804D01*
X2065426Y7378598D01*
X2064512Y7381900D01*
X2063394Y7391958D01*
X2059686Y7408925D01*
X2054098Y7425436D01*
X2046833Y7441184D01*
X2037842Y7456068D01*
X2027326Y7469936D01*
X2015388Y7482535D01*
X2002129Y7493762D01*
X1987753Y7503515D01*
X1972411Y7511694D01*
X1956257Y7518095D01*
X1939493Y7522768D01*
X1922373Y7525562D01*
X1905000Y7526528D01*
X1887626Y7525562D01*
X1870506Y7522768D01*
X1853742Y7518095D01*
X1837588Y7511694D01*
X1822246Y7503515D01*
X1807311Y7493406D01*
X1803755Y7491882D01*
X1799894Y7491780D01*
X1796288Y7493101D01*
X1793443Y7495692D01*
X1791512Y7498283D01*
X1783283Y7506512D01*
X1773936Y7513523D01*
X1763725Y7519111D01*
X1752752Y7523175D01*
X1741373Y7525664D01*
X1729384Y7526528D01*
X1696720Y7526528D01*
X1696720Y7411720D01*
X1738325Y7411720D01*
X1742693Y7410703D01*
X1746250Y7407909D01*
X1748180Y7403896D01*
X1748231Y7399375D01*
X1746605Y7391958D01*
X1744725Y7374686D01*
X1744725Y7357313D01*
X1746605Y7340041D01*
X1748231Y7332624D01*
X1748180Y7328103D01*
X1746250Y7324090D01*
X1742693Y7321296D01*
X1738325Y7320280D01*
X1696720Y7320280D01*
X1696720Y7205472D01*
X1729384Y7205472D01*
X1741373Y7206335D01*
X1752752Y7208824D01*
X1763725Y7212888D01*
X1773936Y7218476D01*
X1783283Y7225487D01*
X1791665Y7233869D01*
X1793798Y7236510D01*
X1796643Y7238949D01*
X1800199Y7240168D01*
X1803958Y7240016D01*
X1807413Y7238542D01*
X1822246Y7228484D01*
X1837588Y7220305D01*
X1853742Y7213904D01*
X1870506Y7209231D01*
X1892300Y7205522D01*
X1895348Y7203389D01*
X2034235Y7064552D01*
X2036419Y7061250D01*
X2037232Y7057339D01*
X2037232Y6590842D01*
X2036470Y6586981D01*
X2034286Y6583680D01*
X2030984Y6581444D01*
X2027123Y6580682D01*
X2023262Y6581394D01*
X2019960Y6583527D01*
X2007971Y6595211D01*
X1994357Y6605828D01*
X1979625Y6614871D01*
X1963978Y6622237D01*
X1947672Y6627875D01*
X1930806Y6631635D01*
X1913636Y6633514D01*
X1896364Y6633514D01*
X1879193Y6631635D01*
X1862328Y6627875D01*
X1846021Y6622237D01*
X1830374Y6614871D01*
X1815693Y6605828D01*
X1802028Y6595211D01*
X1789684Y6583172D01*
X1785823Y6578549D01*
X1782318Y6575806D01*
X1778000Y6574840D01*
X1773682Y6575806D01*
X1770176Y6578549D01*
X1766366Y6583172D01*
X1753971Y6595211D01*
X1740357Y6605828D01*
X1725625Y6614871D01*
X1709978Y6622237D01*
X1694840Y6627469D01*
X1694840Y6520840D01*
X1741576Y6520840D01*
X1745183Y6520180D01*
X1748332Y6518249D01*
X1750568Y6515354D01*
X1751685Y6511848D01*
X1748789Y6489954D01*
X1748282Y6472682D01*
X1749704Y6455460D01*
X1751685Y6445250D01*
X1751584Y6440830D01*
X1749602Y6436868D01*
X1746097Y6434124D01*
X1741728Y6433159D01*
X1694840Y6433159D01*
X1694840Y6326733D01*
X1701901Y6328714D01*
X1717903Y6335217D01*
X1733092Y6343446D01*
X1747316Y6353302D01*
X1760321Y6364630D01*
X1770532Y6375704D01*
X1773936Y6378143D01*
X1778000Y6379006D01*
X1782064Y6378143D01*
X1785467Y6375704D01*
X1795678Y6364630D01*
X1808734Y6353302D01*
X1822907Y6343446D01*
X1838096Y6335217D01*
X1854098Y6328714D01*
X1870710Y6324041D01*
X1885543Y6321552D01*
X1888540Y6320536D01*
X1891080Y6318707D01*
X3469741Y4739995D01*
X3475228Y4734864D01*
X3480866Y4730140D01*
X3486810Y4725822D01*
X3492957Y4721809D01*
X3499358Y4718202D01*
X3506012Y4714951D01*
X3512769Y4712157D01*
X3519728Y4709769D01*
X3526840Y4707788D01*
X3534003Y4706213D01*
X3541318Y4705146D01*
X3548634Y4704486D01*
X3556152Y4704232D01*
X5218684Y4704232D01*
X5222595Y4703470D01*
X5225897Y4701184D01*
X5228132Y4697831D01*
X5228844Y4693869D01*
X5227980Y4689957D01*
X5225643Y4686706D01*
X5219293Y4680661D01*
X5208219Y4667605D01*
X5198618Y4653483D01*
X5190591Y4638344D01*
X5184292Y4622444D01*
X5179669Y4605985D01*
X5176926Y4589119D01*
X5176012Y4572000D01*
X5176926Y4554931D01*
X5179669Y4538065D01*
X5184292Y4521606D01*
X5190591Y4505706D01*
X5198618Y4490567D01*
X5208219Y4476445D01*
X5219293Y4463389D01*
X5230876Y4452416D01*
X5233212Y4449064D01*
X5234076Y4445000D01*
X5233212Y4440986D01*
X5230876Y4437634D01*
X5219293Y4426661D01*
X5208219Y4413605D01*
X5198618Y4399483D01*
X5190591Y4384344D01*
X5184292Y4368444D01*
X5179669Y4351985D01*
X5176926Y4335119D01*
X5176012Y4318000D01*
X5176926Y4300931D01*
X5179669Y4284065D01*
X5184292Y4267606D01*
X5190591Y4251706D01*
X5198618Y4236567D01*
X5208219Y4222445D01*
X5219293Y4209389D01*
X5230876Y4198416D01*
X5233212Y4195064D01*
X5234076Y4191000D01*
X5233212Y4186986D01*
X5230876Y4183634D01*
X5219293Y4172661D01*
X5208219Y4159605D01*
X5198618Y4145483D01*
X5190591Y4130344D01*
X5184292Y4114444D01*
X5179669Y4097985D01*
X5176926Y4081119D01*
X5176012Y4064000D01*
X5176926Y4046931D01*
X5179669Y4030065D01*
X5184292Y4013606D01*
X5190591Y3997706D01*
X5198618Y3982567D01*
X5208219Y3968445D01*
X5219293Y3955389D01*
X5225643Y3949344D01*
X5227980Y3946093D01*
X5228844Y3942181D01*
X5228132Y3938219D01*
X5225897Y3934866D01*
X5222595Y3932580D01*
X5218684Y3931818D01*
X4699203Y3931818D01*
X4691684Y3931564D01*
X4684369Y3930904D01*
X4677054Y3929837D01*
X4669891Y3928262D01*
X4662779Y3926281D01*
X4655820Y3923893D01*
X4649063Y3921099D01*
X4642408Y3917848D01*
X4636008Y3914241D01*
X4629861Y3910228D01*
X4623917Y3905910D01*
X4618278Y3901186D01*
X4612792Y3896055D01*
X3934053Y3217265D01*
X3931107Y3215233D01*
X3927652Y3214319D01*
X3914851Y3213303D01*
X3897426Y3210001D01*
X3880408Y3204870D01*
X3864051Y3197961D01*
X3848557Y3189376D01*
X3839159Y3182823D01*
X3835958Y3181299D01*
X3832453Y3180994D01*
X3829050Y3181908D01*
X3826154Y3183940D01*
X3821531Y3188512D01*
X3812184Y3195523D01*
X3801973Y3201111D01*
X3791051Y3205175D01*
X3779621Y3207664D01*
X3767632Y3208528D01*
X3731869Y3208528D01*
X3731869Y3093720D01*
X3763924Y3093720D01*
X3768293Y3092704D01*
X3771798Y3089960D01*
X3773779Y3085896D01*
X3773830Y3081426D01*
X3772357Y3074517D01*
X3770477Y3056890D01*
X3770477Y3039110D01*
X3772357Y3021482D01*
X3773830Y3014573D01*
X3773779Y3010103D01*
X3771798Y3006039D01*
X3768293Y3003296D01*
X3763924Y3002280D01*
X3731869Y3002280D01*
X3731869Y2925927D01*
X3731056Y2922066D01*
X3728872Y2918764D01*
X3725570Y2916580D01*
X3721709Y2915767D01*
X3644290Y2915767D01*
X3640429Y2916580D01*
X3637127Y2918764D01*
X3634943Y2922066D01*
X3634130Y2925927D01*
X3634130Y3002280D01*
X3516223Y3002280D01*
X3516223Y2969615D01*
X3517087Y2957626D01*
X3519525Y2946247D01*
X3523640Y2935274D01*
X3526078Y2930804D01*
X3527298Y2926842D01*
X3526790Y2922676D01*
X3524656Y2919069D01*
X3521252Y2916631D01*
X3517137Y2915767D01*
X1147927Y2915767D01*
X1144066Y2916580D01*
X1140764Y2918764D01*
X1138580Y2922066D01*
X1137767Y2925927D01*
X1137869Y3802075D01*
X1503121Y6358534D01*
X1503984Y6361480D01*
X1505712Y6364020D01*
X1516532Y6375755D01*
X1519936Y6378143D01*
X1524000Y6379006D01*
X1528064Y6378143D01*
X1531467Y6375704D01*
X1541678Y6364630D01*
X1554734Y6353302D01*
X1568907Y6343446D01*
X1584096Y6335217D01*
X1600098Y6328714D01*
X1607159Y6326733D01*
X1607159Y6433159D01*
X1560271Y6433159D01*
X1555953Y6434124D01*
X1552448Y6436868D01*
X1550416Y6440830D01*
X1550314Y6445250D01*
X1552295Y6455460D01*
X1553718Y6472682D01*
X1553260Y6489954D01*
X1550314Y6511848D01*
X1551432Y6515354D01*
X1553667Y6518249D01*
X1556816Y6520180D01*
X1560423Y6520840D01*
X1607159Y6520840D01*
X1607159Y6627469D01*
X1592021Y6622237D01*
X1576374Y6614871D01*
X1561693Y6605828D01*
X1548028Y6595211D01*
X1535684Y6583172D01*
X1531823Y6578549D01*
X1528318Y6575806D01*
X1524000Y6574840D01*
X1519682Y6575806D01*
X1516176Y6578549D01*
X1512366Y6583172D01*
X1499971Y6595211D01*
X1486357Y6605828D01*
X1471625Y6614871D01*
X1455978Y6622237D01*
X1439672Y6627875D01*
X1422806Y6631635D01*
X1405636Y6633514D01*
X1388364Y6633514D01*
X1371193Y6631635D01*
X1354328Y6627875D01*
X1338021Y6622237D01*
X1322374Y6614871D01*
X1307693Y6605828D01*
X1294028Y6595211D01*
X1281684Y6583172D01*
X1270660Y6569862D01*
X1261211Y6555384D01*
X1253439Y6539992D01*
X1247394Y6523786D01*
X1243126Y6507073D01*
X1240790Y6489954D01*
X1240282Y6472682D01*
X1241704Y6455460D01*
X1245006Y6438493D01*
X1250188Y6422034D01*
X1257096Y6406184D01*
X1260754Y6399885D01*
X1261922Y6396736D01*
X1262024Y6393383D01*
X895146Y3824884D01*
X894232Y3812387D01*
X894232Y2794304D01*
X895096Y2779318D01*
X897788Y2764840D01*
X902157Y2750820D01*
X908202Y2737408D01*
X915771Y2724810D01*
X924864Y2713228D01*
X935228Y2702864D01*
X946810Y2693771D01*
X959408Y2686202D01*
X972819Y2680157D01*
X986840Y2675788D01*
X1001318Y2673096D01*
G37*
G36*
X3516223Y3093720D02*
G01*
X3634130Y3093720D01*
X3634130Y3208528D01*
X3598367Y3208528D01*
X3586378Y3207664D01*
X3574948Y3205175D01*
X3564026Y3201111D01*
X3553815Y3195523D01*
X3544468Y3188512D01*
X3536187Y3180283D01*
X3529228Y3170936D01*
X3523640Y3160725D01*
X3519525Y3149752D01*
X3517087Y3138373D01*
X3516223Y3126384D01*
G37*
G36*
X1397000Y4034231D02*
G01*
X1414272Y4035196D01*
X1431290Y4038041D01*
X1447901Y4042714D01*
X1463903Y4049217D01*
X1479092Y4057446D01*
X1493316Y4067301D01*
X1506321Y4078630D01*
X1516532Y4089704D01*
X1519936Y4092143D01*
X1524000Y4093006D01*
X1528064Y4092143D01*
X1531467Y4089704D01*
X1541678Y4078630D01*
X1554734Y4067301D01*
X1568907Y4057446D01*
X1584096Y4049217D01*
X1600098Y4042714D01*
X1616710Y4038041D01*
X1633778Y4035196D01*
X1651000Y4034231D01*
X1668272Y4035196D01*
X1685289Y4038041D01*
X1701901Y4042714D01*
X1717903Y4049217D01*
X1733092Y4057446D01*
X1747316Y4067301D01*
X1760321Y4078630D01*
X1770532Y4089704D01*
X1773936Y4092143D01*
X1778000Y4093006D01*
X1782064Y4092143D01*
X1785467Y4089704D01*
X1795678Y4078630D01*
X1808734Y4067301D01*
X1822907Y4057446D01*
X1838096Y4049217D01*
X1854098Y4042714D01*
X1870710Y4038041D01*
X1887778Y4035196D01*
X1905000Y4034231D01*
X1922272Y4035196D01*
X1939289Y4038041D01*
X1955901Y4042714D01*
X1971903Y4049217D01*
X1987092Y4057446D01*
X2001316Y4067301D01*
X2014321Y4078630D01*
X2024532Y4089704D01*
X2027936Y4092143D01*
X2032000Y4093006D01*
X2036064Y4092143D01*
X2039467Y4089704D01*
X2049678Y4078630D01*
X2062734Y4067301D01*
X2076907Y4057446D01*
X2092096Y4049217D01*
X2108098Y4042714D01*
X2124710Y4038041D01*
X2141778Y4035196D01*
X2159000Y4034231D01*
X2176272Y4035196D01*
X2193290Y4038041D01*
X2209901Y4042714D01*
X2225903Y4049217D01*
X2241092Y4057446D01*
X2255316Y4067301D01*
X2268321Y4078630D01*
X2278532Y4089704D01*
X2281936Y4092143D01*
X2286000Y4093006D01*
X2290064Y4092143D01*
X2293467Y4089704D01*
X2303678Y4078630D01*
X2316734Y4067301D01*
X2330907Y4057446D01*
X2346096Y4049217D01*
X2362098Y4042714D01*
X2378710Y4038041D01*
X2395778Y4035196D01*
X2413000Y4034231D01*
X2430272Y4035196D01*
X2447290Y4038041D01*
X2463901Y4042714D01*
X2479903Y4049217D01*
X2495092Y4057446D01*
X2509316Y4067301D01*
X2522321Y4078630D01*
X2532532Y4089704D01*
X2535936Y4092143D01*
X2540000Y4093006D01*
X2544064Y4092143D01*
X2547467Y4089704D01*
X2557678Y4078630D01*
X2570683Y4067301D01*
X2584907Y4057446D01*
X2600096Y4049217D01*
X2616098Y4042714D01*
X2632710Y4038041D01*
X2649778Y4035196D01*
X2667000Y4034231D01*
X2684221Y4035196D01*
X2701290Y4038041D01*
X2717901Y4042714D01*
X2733903Y4049217D01*
X2749092Y4057446D01*
X2763316Y4067301D01*
X2776321Y4078630D01*
X2786532Y4089704D01*
X2789936Y4092143D01*
X2794000Y4093006D01*
X2798064Y4092143D01*
X2801467Y4089704D01*
X2811678Y4078630D01*
X2824683Y4067301D01*
X2838907Y4057446D01*
X2854096Y4049217D01*
X2870098Y4042714D01*
X2886710Y4038041D01*
X2903778Y4035196D01*
X2921000Y4034231D01*
X2938221Y4035196D01*
X2955290Y4038041D01*
X2971901Y4042714D01*
X2987903Y4049217D01*
X3003092Y4057446D01*
X3017316Y4067301D01*
X3030321Y4078630D01*
X3040532Y4089704D01*
X3043936Y4092143D01*
X3048000Y4093006D01*
X3052064Y4092143D01*
X3055467Y4089704D01*
X3065678Y4078630D01*
X3078683Y4067301D01*
X3092907Y4057446D01*
X3108096Y4049217D01*
X3124098Y4042714D01*
X3140710Y4038041D01*
X3157778Y4035196D01*
X3175000Y4034231D01*
X3192221Y4035196D01*
X3209290Y4038041D01*
X3225901Y4042714D01*
X3241903Y4049217D01*
X3257092Y4057446D01*
X3271316Y4067301D01*
X3284321Y4078630D01*
X3296005Y4091330D01*
X3306267Y4105249D01*
X3314903Y4120235D01*
X3321812Y4136034D01*
X3326993Y4152493D01*
X3330295Y4169460D01*
X3331718Y4186682D01*
X3331260Y4203954D01*
X3328873Y4221073D01*
X3324606Y4237786D01*
X3318560Y4253992D01*
X3310788Y4269384D01*
X3301339Y4283862D01*
X3290315Y4297172D01*
X3277971Y4309211D01*
X3264306Y4319828D01*
X3249625Y4328871D01*
X3233978Y4336237D01*
X3217672Y4341876D01*
X3200806Y4345635D01*
X3183636Y4347514D01*
X3166364Y4347514D01*
X3149193Y4345635D01*
X3132328Y4341876D01*
X3116021Y4336237D01*
X3100374Y4328871D01*
X3085693Y4319828D01*
X3072028Y4309211D01*
X3059684Y4297172D01*
X3055823Y4292549D01*
X3052318Y4289806D01*
X3048000Y4288840D01*
X3043682Y4289806D01*
X3040176Y4292549D01*
X3036316Y4297172D01*
X3023971Y4309211D01*
X3010306Y4319828D01*
X2995625Y4328871D01*
X2979978Y4336237D01*
X2963672Y4341876D01*
X2946806Y4345635D01*
X2929636Y4347514D01*
X2912364Y4347514D01*
X2895193Y4345635D01*
X2878328Y4341876D01*
X2862021Y4336237D01*
X2846374Y4328871D01*
X2831693Y4319828D01*
X2818028Y4309211D01*
X2805684Y4297172D01*
X2801823Y4292549D01*
X2798318Y4289806D01*
X2794000Y4288840D01*
X2789682Y4289806D01*
X2786176Y4292549D01*
X2782316Y4297172D01*
X2769971Y4309211D01*
X2756306Y4319828D01*
X2741625Y4328871D01*
X2725978Y4336237D01*
X2709672Y4341876D01*
X2692806Y4345635D01*
X2675636Y4347514D01*
X2658364Y4347514D01*
X2641193Y4345635D01*
X2624328Y4341876D01*
X2608021Y4336237D01*
X2592374Y4328871D01*
X2577693Y4319828D01*
X2564028Y4309211D01*
X2551684Y4297172D01*
X2547823Y4292549D01*
X2544318Y4289806D01*
X2540000Y4288840D01*
X2535682Y4289806D01*
X2532176Y4292549D01*
X2528366Y4297172D01*
X2515971Y4309211D01*
X2502357Y4319828D01*
X2487625Y4328871D01*
X2471978Y4336237D01*
X2455672Y4341876D01*
X2438806Y4345635D01*
X2421636Y4347514D01*
X2404364Y4347514D01*
X2387193Y4345635D01*
X2370328Y4341876D01*
X2354021Y4336237D01*
X2338374Y4328871D01*
X2323693Y4319828D01*
X2310028Y4309211D01*
X2297684Y4297172D01*
X2293823Y4292549D01*
X2290318Y4289806D01*
X2286000Y4288840D01*
X2281682Y4289806D01*
X2278176Y4292549D01*
X2274366Y4297172D01*
X2261971Y4309211D01*
X2248357Y4319828D01*
X2233625Y4328871D01*
X2217978Y4336237D01*
X2201672Y4341876D01*
X2184806Y4345635D01*
X2167636Y4347514D01*
X2150364Y4347514D01*
X2133193Y4345635D01*
X2116328Y4341876D01*
X2100021Y4336237D01*
X2084374Y4328871D01*
X2069693Y4319828D01*
X2056028Y4309211D01*
X2043684Y4297172D01*
X2039823Y4292549D01*
X2036318Y4289806D01*
X2032000Y4288840D01*
X2027682Y4289806D01*
X2024176Y4292549D01*
X2020366Y4297172D01*
X2007971Y4309211D01*
X1994357Y4319828D01*
X1979625Y4328871D01*
X1963978Y4336237D01*
X1947672Y4341876D01*
X1930806Y4345635D01*
X1913636Y4347514D01*
X1896364Y4347514D01*
X1879193Y4345635D01*
X1862328Y4341876D01*
X1846021Y4336237D01*
X1830374Y4328871D01*
X1815693Y4319828D01*
X1802028Y4309211D01*
X1789684Y4297172D01*
X1785823Y4292549D01*
X1782318Y4289806D01*
X1778000Y4288840D01*
X1773682Y4289806D01*
X1770176Y4292549D01*
X1766366Y4297172D01*
X1753971Y4309211D01*
X1740357Y4319828D01*
X1725625Y4328871D01*
X1709978Y4336237D01*
X1693672Y4341876D01*
X1676806Y4345635D01*
X1659636Y4347514D01*
X1642364Y4347514D01*
X1625193Y4345635D01*
X1608328Y4341876D01*
X1592021Y4336237D01*
X1576374Y4328871D01*
X1561693Y4319828D01*
X1548028Y4309211D01*
X1535684Y4297172D01*
X1531823Y4292549D01*
X1528318Y4289806D01*
X1524000Y4288840D01*
X1519682Y4289806D01*
X1516176Y4292549D01*
X1512366Y4297172D01*
X1499971Y4309211D01*
X1486357Y4319828D01*
X1471625Y4328871D01*
X1455978Y4336237D01*
X1439672Y4341876D01*
X1422806Y4345635D01*
X1405636Y4347514D01*
X1388364Y4347514D01*
X1371193Y4345635D01*
X1354328Y4341876D01*
X1338021Y4336237D01*
X1322374Y4328871D01*
X1307693Y4319828D01*
X1294028Y4309211D01*
X1281684Y4297172D01*
X1270660Y4283862D01*
X1261211Y4269384D01*
X1253439Y4253992D01*
X1247394Y4237786D01*
X1243126Y4221073D01*
X1240790Y4203954D01*
X1240282Y4186682D01*
X1241704Y4169460D01*
X1245006Y4152493D01*
X1250188Y4136034D01*
X1257096Y4120235D01*
X1265732Y4105249D01*
X1275994Y4091330D01*
X1287678Y4078630D01*
X1300734Y4067301D01*
X1314907Y4057446D01*
X1330096Y4049217D01*
X1346098Y4042714D01*
X1362710Y4038041D01*
X1379778Y4035196D01*
G37*
G36*
X1572615Y7205472D02*
G01*
X1605280Y7205472D01*
X1605280Y7320280D01*
X1490472Y7320280D01*
X1490472Y7287615D01*
X1491335Y7275626D01*
X1493824Y7264247D01*
X1497888Y7253274D01*
X1503476Y7243064D01*
X1510487Y7233716D01*
X1518716Y7225487D01*
X1528064Y7218476D01*
X1538274Y7212888D01*
X1549247Y7208824D01*
X1560626Y7206335D01*
G37*
G36*
X1490472Y7411720D02*
G01*
X1605280Y7411720D01*
X1605280Y7526528D01*
X1572615Y7526528D01*
X1560626Y7525664D01*
X1549247Y7523175D01*
X1538274Y7519111D01*
X1528064Y7513523D01*
X1518716Y7506512D01*
X1510487Y7498283D01*
X1503476Y7488936D01*
X1497888Y7478725D01*
X1493824Y7467752D01*
X1491335Y7456373D01*
X1490472Y7444384D01*
G37*
G36*
X3852367Y7459472D02*
G01*
X3888130Y7459472D01*
X3888130Y7574280D01*
X3770223Y7574280D01*
X3770223Y7541615D01*
X3771087Y7529626D01*
X3773525Y7518247D01*
X3777640Y7507274D01*
X3783228Y7497064D01*
X3790187Y7487716D01*
X3798468Y7479487D01*
X3807815Y7472476D01*
X3818026Y7466888D01*
X3828948Y7462824D01*
X3840378Y7460335D01*
G37*
G36*
X3770223Y7665720D02*
G01*
X3888130Y7665720D01*
X3888130Y7780528D01*
X3852367Y7780528D01*
X3840378Y7779664D01*
X3828948Y7777175D01*
X3818026Y7773111D01*
X3807815Y7767523D01*
X3798468Y7760512D01*
X3790187Y7752283D01*
X3783228Y7742936D01*
X3777640Y7732725D01*
X3773525Y7721752D01*
X3771087Y7710373D01*
X3770223Y7698384D01*
G37*
G36*
X10761472Y7919720D02*
G01*
X10876280Y7919720D01*
X10876280Y8034528D01*
X10843615Y8034528D01*
X10831626Y8033664D01*
X10820247Y8031175D01*
X10809274Y8027111D01*
X10799064Y8021523D01*
X10789716Y8014512D01*
X10781487Y8006283D01*
X10774476Y7996936D01*
X10768888Y7986725D01*
X10764824Y7975752D01*
X10762335Y7964373D01*
X10761472Y7952384D01*
G37*
G36*
X10967720Y7919720D02*
G01*
X11082528Y7919720D01*
X11082528Y7952384D01*
X11081664Y7964373D01*
X11079175Y7975752D01*
X11075111Y7986725D01*
X11069523Y7996936D01*
X11062512Y8006283D01*
X11054283Y8014512D01*
X11044936Y8021523D01*
X11034725Y8027111D01*
X11023752Y8031175D01*
X11012373Y8033664D01*
X11000384Y8034528D01*
X10967720Y8034528D01*
G37*

%LPD*%
G36*
X6277660Y3042767D02*
G01*
X6273749Y3043580D01*
X6270447Y3045764D01*
X5493715Y3822547D01*
X5491835Y3825087D01*
X5490870Y3828084D01*
X5488279Y3843985D01*
X5483656Y3860444D01*
X5477357Y3876344D01*
X5469331Y3891483D01*
X5459730Y3905605D01*
X5448655Y3918661D01*
X5437073Y3929634D01*
X5434736Y3932986D01*
X5433872Y3937000D01*
X5434736Y3941064D01*
X5437073Y3944416D01*
X5448655Y3955389D01*
X5459730Y3968445D01*
X5469331Y3982567D01*
X5477357Y3997706D01*
X5483656Y4013606D01*
X5488279Y4030065D01*
X5491022Y4046931D01*
X5491937Y4064000D01*
X5491022Y4081119D01*
X5488279Y4097985D01*
X5483656Y4114444D01*
X5477357Y4130344D01*
X5469331Y4145483D01*
X5459730Y4159605D01*
X5448655Y4172661D01*
X5442305Y4178655D01*
X5440019Y4181957D01*
X5439156Y4185869D01*
X5439867Y4189831D01*
X5442051Y4193184D01*
X5445353Y4195419D01*
X5449316Y4196232D01*
X6603695Y4196232D01*
X6618681Y4197096D01*
X6633159Y4199788D01*
X6647180Y4204157D01*
X6660591Y4210202D01*
X6673189Y4217771D01*
X6684772Y4226864D01*
X6695135Y4237228D01*
X6704228Y4248810D01*
X6711797Y4261408D01*
X6717842Y4274820D01*
X6722211Y4288840D01*
X6724903Y4303318D01*
X6725767Y4318304D01*
X6725767Y7488072D01*
X6726580Y7491933D01*
X6728764Y7495235D01*
X6732066Y7497419D01*
X6735927Y7498232D01*
X7758633Y7498232D01*
X7762595Y7497419D01*
X7765897Y7495184D01*
X7768081Y7491831D01*
X7768793Y7487869D01*
X7767929Y7483957D01*
X7765643Y7480655D01*
X7759293Y7474661D01*
X7748219Y7461605D01*
X7738618Y7447483D01*
X7730591Y7432344D01*
X7724292Y7416444D01*
X7719669Y7399985D01*
X7716926Y7383119D01*
X7716012Y7366000D01*
X7716926Y7348931D01*
X7719669Y7332065D01*
X7724292Y7315606D01*
X7730591Y7299706D01*
X7738618Y7284567D01*
X7748219Y7270445D01*
X7759293Y7257389D01*
X7770875Y7246416D01*
X7773212Y7243064D01*
X7774076Y7239000D01*
X7773212Y7234986D01*
X7770875Y7231634D01*
X7759293Y7220661D01*
X7748219Y7207605D01*
X7738618Y7193483D01*
X7730591Y7178344D01*
X7724292Y7162444D01*
X7719669Y7145985D01*
X7716926Y7129119D01*
X7716012Y7112000D01*
X7716926Y7094931D01*
X7719669Y7078065D01*
X7724292Y7061606D01*
X7730591Y7045706D01*
X7738618Y7030567D01*
X7748219Y7016445D01*
X7759293Y7003389D01*
X7770875Y6992416D01*
X7773212Y6989064D01*
X7774076Y6985000D01*
X7773212Y6980986D01*
X7770875Y6977634D01*
X7759293Y6966661D01*
X7748219Y6953605D01*
X7738618Y6939483D01*
X7730591Y6924344D01*
X7724292Y6908444D01*
X7719669Y6891985D01*
X7716926Y6875119D01*
X7716012Y6858000D01*
X7716926Y6840931D01*
X7719669Y6824065D01*
X7724292Y6807606D01*
X7730591Y6791706D01*
X7738618Y6776567D01*
X7748219Y6762445D01*
X7759293Y6749389D01*
X7770875Y6738416D01*
X7773212Y6735064D01*
X7774076Y6731000D01*
X7773212Y6726986D01*
X7770875Y6723634D01*
X7759293Y6712661D01*
X7748219Y6699605D01*
X7738618Y6685483D01*
X7730591Y6670344D01*
X7724292Y6654444D01*
X7719669Y6637985D01*
X7716926Y6621119D01*
X7716012Y6604000D01*
X7716926Y6586931D01*
X7719669Y6570065D01*
X7724292Y6553606D01*
X7730591Y6537706D01*
X7738618Y6522567D01*
X7748219Y6508445D01*
X7759293Y6495389D01*
X7770875Y6484416D01*
X7773212Y6481064D01*
X7774076Y6477000D01*
X7773212Y6472986D01*
X7770875Y6469634D01*
X7759293Y6458661D01*
X7748219Y6445605D01*
X7738618Y6431483D01*
X7730591Y6416344D01*
X7724292Y6400444D01*
X7719669Y6383985D01*
X7716926Y6367119D01*
X7716012Y6350000D01*
X7716926Y6332931D01*
X7719669Y6316065D01*
X7724292Y6299606D01*
X7730591Y6283706D01*
X7738618Y6268567D01*
X7748219Y6254445D01*
X7759293Y6241389D01*
X7770875Y6230416D01*
X7773212Y6227064D01*
X7774076Y6223000D01*
X7773212Y6218986D01*
X7770875Y6215634D01*
X7759293Y6204661D01*
X7748219Y6191605D01*
X7738618Y6177483D01*
X7730591Y6162344D01*
X7724292Y6146444D01*
X7719669Y6129985D01*
X7716926Y6113119D01*
X7716012Y6096000D01*
X7716926Y6078931D01*
X7719669Y6062065D01*
X7724292Y6045606D01*
X7730591Y6029706D01*
X7738618Y6014567D01*
X7748219Y6000445D01*
X7759293Y5987389D01*
X7770875Y5976416D01*
X7773212Y5973064D01*
X7774076Y5969000D01*
X7773212Y5964986D01*
X7770875Y5961634D01*
X7759293Y5950661D01*
X7748219Y5937605D01*
X7738618Y5923483D01*
X7730591Y5908344D01*
X7724292Y5892444D01*
X7719669Y5875985D01*
X7716926Y5859119D01*
X7716012Y5842000D01*
X7716926Y5824931D01*
X7719669Y5808065D01*
X7724292Y5791606D01*
X7730591Y5775706D01*
X7738618Y5760567D01*
X7748219Y5746445D01*
X7759293Y5733389D01*
X7770875Y5722416D01*
X7773212Y5719064D01*
X7774076Y5715000D01*
X7773212Y5710986D01*
X7770875Y5707634D01*
X7759293Y5696661D01*
X7748219Y5683605D01*
X7738618Y5669483D01*
X7730591Y5654344D01*
X7724292Y5638444D01*
X7719669Y5621985D01*
X7716926Y5605119D01*
X7716012Y5588000D01*
X7716926Y5570931D01*
X7719669Y5554065D01*
X7724292Y5537606D01*
X7730591Y5521706D01*
X7738618Y5506567D01*
X7748219Y5492445D01*
X7759293Y5479389D01*
X7770875Y5468416D01*
X7773212Y5465064D01*
X7774076Y5461000D01*
X7773212Y5456986D01*
X7770875Y5453634D01*
X7759293Y5442661D01*
X7748219Y5429605D01*
X7738618Y5415483D01*
X7730591Y5400344D01*
X7724292Y5384444D01*
X7719669Y5367985D01*
X7716926Y5351119D01*
X7716012Y5334000D01*
X7716926Y5316931D01*
X7719669Y5300065D01*
X7724292Y5283606D01*
X7730591Y5267706D01*
X7738618Y5252567D01*
X7748219Y5238445D01*
X7759293Y5225389D01*
X7770875Y5214416D01*
X7773212Y5211064D01*
X7774076Y5207000D01*
X7773212Y5202986D01*
X7770875Y5199634D01*
X7759293Y5188661D01*
X7748219Y5175605D01*
X7738618Y5161483D01*
X7730591Y5146344D01*
X7724292Y5130444D01*
X7719669Y5113985D01*
X7716926Y5097119D01*
X7716012Y5080000D01*
X7716926Y5062931D01*
X7719669Y5046065D01*
X7724292Y5029606D01*
X7730591Y5013706D01*
X7738618Y4998567D01*
X7748219Y4984445D01*
X7759293Y4971389D01*
X7770875Y4960416D01*
X7773212Y4957064D01*
X7774076Y4953000D01*
X7773212Y4948986D01*
X7770875Y4945634D01*
X7759293Y4934661D01*
X7748219Y4921605D01*
X7738618Y4907483D01*
X7730591Y4892344D01*
X7724292Y4876444D01*
X7719669Y4859985D01*
X7716926Y4843119D01*
X7716012Y4826000D01*
X7716926Y4808931D01*
X7719669Y4792065D01*
X7724292Y4775606D01*
X7730591Y4759706D01*
X7738618Y4744567D01*
X7748219Y4730445D01*
X7759293Y4717389D01*
X7770875Y4706416D01*
X7773212Y4703064D01*
X7774076Y4699000D01*
X7773212Y4694986D01*
X7770875Y4691634D01*
X7759293Y4680661D01*
X7748219Y4667605D01*
X7738618Y4653483D01*
X7730591Y4638344D01*
X7724292Y4622444D01*
X7719669Y4605985D01*
X7716926Y4589119D01*
X7716012Y4572000D01*
X7716926Y4554931D01*
X7719669Y4538065D01*
X7724292Y4521606D01*
X7730591Y4505706D01*
X7738618Y4490567D01*
X7748219Y4476445D01*
X7759293Y4463389D01*
X7770875Y4452416D01*
X7773212Y4449064D01*
X7774076Y4445000D01*
X7773212Y4440986D01*
X7770875Y4437634D01*
X7759293Y4426661D01*
X7748219Y4413605D01*
X7738618Y4399483D01*
X7730591Y4384344D01*
X7724292Y4368444D01*
X7719669Y4351985D01*
X7716926Y4335119D01*
X7716012Y4318000D01*
X7716926Y4300931D01*
X7719669Y4284065D01*
X7724292Y4267606D01*
X7730591Y4251706D01*
X7738618Y4236567D01*
X7748219Y4222445D01*
X7759293Y4209389D01*
X7770875Y4198416D01*
X7773212Y4195064D01*
X7774076Y4191000D01*
X7773212Y4186986D01*
X7770875Y4183634D01*
X7759293Y4172661D01*
X7748219Y4159605D01*
X7738618Y4145483D01*
X7730591Y4130344D01*
X7724292Y4114444D01*
X7722616Y4108450D01*
X7829550Y4108450D01*
X7829550Y4153662D01*
X7830515Y4158030D01*
X7833309Y4161586D01*
X7837373Y4163568D01*
X7841843Y4163568D01*
X7848396Y4162145D01*
X7865414Y4160265D01*
X7882534Y4160265D01*
X7899552Y4162145D01*
X7906105Y4163568D01*
X7910575Y4163568D01*
X7914640Y4161586D01*
X7917434Y4158030D01*
X7918450Y4153662D01*
X7918450Y4108450D01*
X8025333Y4108450D01*
X8023656Y4114444D01*
X8017357Y4130344D01*
X8009331Y4145483D01*
X7999730Y4159605D01*
X7988655Y4172661D01*
X7977073Y4183634D01*
X7974736Y4186986D01*
X7973872Y4191000D01*
X7974736Y4195064D01*
X7977073Y4198416D01*
X7988655Y4209389D01*
X7999730Y4222445D01*
X8009331Y4236567D01*
X8017357Y4251706D01*
X8023656Y4267606D01*
X8028279Y4284065D01*
X8030870Y4299966D01*
X8031835Y4302963D01*
X8033715Y4305503D01*
X8175396Y4447235D01*
X8178698Y4449419D01*
X8182609Y4450232D01*
X10802874Y4450232D01*
X10806684Y4449470D01*
X10809986Y4447286D01*
X10812170Y4444085D01*
X10812983Y4440224D01*
X10812322Y4436364D01*
X10810240Y4433062D01*
X10799673Y4421936D01*
X10789158Y4408068D01*
X10780166Y4393184D01*
X10772902Y4377436D01*
X10767314Y4360926D01*
X10763605Y4343958D01*
X10761726Y4326686D01*
X10761726Y4309313D01*
X10763605Y4292041D01*
X10767314Y4275074D01*
X10772902Y4258564D01*
X10780166Y4242816D01*
X10789158Y4227931D01*
X10799673Y4214063D01*
X10811611Y4201464D01*
X10824870Y4190237D01*
X10839246Y4180484D01*
X10854588Y4172305D01*
X10870742Y4165904D01*
X10887506Y4161231D01*
X10904626Y4158437D01*
X10922000Y4157472D01*
X10939373Y4158437D01*
X10956493Y4161231D01*
X10973257Y4165904D01*
X10989411Y4172305D01*
X11004753Y4180484D01*
X11019129Y4190237D01*
X11032388Y4201464D01*
X11036655Y4205986D01*
X11039957Y4208322D01*
X11043869Y4209186D01*
X11047831Y4208424D01*
X11051184Y4206240D01*
X11053419Y4202938D01*
X11054232Y4199026D01*
X11054232Y4118660D01*
X11053419Y4114749D01*
X11051235Y4111447D01*
X10849559Y3909822D01*
X10847222Y3908044D01*
X9242552Y3043986D01*
X9240215Y3043072D01*
X9237726Y3042767D01*
X8795562Y3042767D01*
X8791498Y3043631D01*
X8788095Y3046069D01*
X8785961Y3049676D01*
X8785453Y3053842D01*
X8786672Y3057804D01*
X8789111Y3062274D01*
X8793175Y3073247D01*
X8795664Y3084626D01*
X8796528Y3096615D01*
X8796528Y3129280D01*
X8681720Y3129280D01*
X8681720Y3087674D01*
X8680704Y3083306D01*
X8677910Y3079750D01*
X8673896Y3077819D01*
X8669375Y3077768D01*
X8661958Y3079394D01*
X8644686Y3081274D01*
X8627313Y3081274D01*
X8610041Y3079394D01*
X8602624Y3077768D01*
X8598103Y3077819D01*
X8594090Y3079750D01*
X8591296Y3083306D01*
X8590280Y3087674D01*
X8590280Y3129280D01*
X8475472Y3129280D01*
X8475472Y3096615D01*
X8476335Y3084626D01*
X8478824Y3073247D01*
X8482888Y3062274D01*
X8485327Y3057804D01*
X8486546Y3053842D01*
X8486038Y3049676D01*
X8483904Y3046069D01*
X8480501Y3043631D01*
X8476437Y3042767D01*
G37*

%LPC*%
G36*
X8475472Y3220720D02*
G01*
X8590280Y3220720D01*
X8590280Y3335528D01*
X8557615Y3335528D01*
X8545626Y3334664D01*
X8534247Y3332175D01*
X8523274Y3328111D01*
X8513064Y3322523D01*
X8503716Y3315512D01*
X8495487Y3307283D01*
X8488476Y3297936D01*
X8482888Y3287725D01*
X8478824Y3276752D01*
X8476335Y3265373D01*
X8475472Y3253384D01*
G37*
G36*
X8681720Y3220720D02*
G01*
X8796528Y3220720D01*
X8796528Y3253384D01*
X8795664Y3265373D01*
X8793175Y3276752D01*
X8789111Y3287725D01*
X8783523Y3297936D01*
X8776512Y3307283D01*
X8768283Y3315512D01*
X8758936Y3322523D01*
X8748725Y3328111D01*
X8737752Y3332175D01*
X8726373Y3334664D01*
X8714384Y3335528D01*
X8681720Y3335528D01*
G37*
G36*
X7865414Y3652265D02*
G01*
X7882534Y3652265D01*
X7899552Y3654145D01*
X7916214Y3657803D01*
X7932470Y3663289D01*
X7947964Y3670452D01*
X7962646Y3679291D01*
X7976260Y3689604D01*
X7988655Y3701389D01*
X7999730Y3714445D01*
X8009331Y3728567D01*
X8017357Y3743706D01*
X8023656Y3759606D01*
X8028279Y3776065D01*
X8031022Y3792931D01*
X8031937Y3810000D01*
X8031022Y3827119D01*
X8028279Y3843985D01*
X8023656Y3860444D01*
X8017357Y3876344D01*
X8009331Y3891483D01*
X7999730Y3905605D01*
X7988655Y3918661D01*
X7977073Y3929634D01*
X7974736Y3932986D01*
X7973872Y3937000D01*
X7974736Y3941064D01*
X7977073Y3944416D01*
X7988655Y3955389D01*
X7999730Y3968445D01*
X8009331Y3982567D01*
X8017357Y3997706D01*
X8023656Y4013606D01*
X8025333Y4019550D01*
X7918450Y4019550D01*
X7918450Y3974388D01*
X7917434Y3970020D01*
X7914640Y3966464D01*
X7910575Y3964482D01*
X7906105Y3964482D01*
X7899552Y3965905D01*
X7882534Y3967784D01*
X7865414Y3967784D01*
X7848396Y3965905D01*
X7841843Y3964482D01*
X7837373Y3964482D01*
X7833309Y3966464D01*
X7830515Y3970020D01*
X7829550Y3974388D01*
X7829550Y4019550D01*
X7722616Y4019550D01*
X7724292Y4013606D01*
X7730591Y3997706D01*
X7738618Y3982567D01*
X7748219Y3968445D01*
X7759293Y3955389D01*
X7770875Y3944416D01*
X7773212Y3941064D01*
X7774076Y3937000D01*
X7773212Y3932986D01*
X7770875Y3929634D01*
X7759293Y3918661D01*
X7748219Y3905605D01*
X7738618Y3891483D01*
X7730591Y3876344D01*
X7724292Y3860444D01*
X7719669Y3843985D01*
X7716926Y3827119D01*
X7716012Y3810000D01*
X7716926Y3792931D01*
X7719669Y3776065D01*
X7724292Y3759606D01*
X7730591Y3743706D01*
X7738618Y3728567D01*
X7748219Y3714445D01*
X7759293Y3701389D01*
X7771688Y3689604D01*
X7785303Y3679291D01*
X7799984Y3670452D01*
X7815478Y3663289D01*
X7831734Y3657803D01*
X7848396Y3654145D01*
G37*

%LPD*%
D10*
X3896029Y4177131D02*
G01*
X3683000Y3964101D01*
X3683000Y3048000D01*
X7873974Y4064025D02*
G01*
X7760868Y4177131D01*
X3896029Y4177131D01*
X3896029Y4177131D02*
G01*
X3896029Y4231970D01*
X1651000Y6477000D01*
X1651000Y6477000D02*
G01*
X1651000Y7366000D01*
X7873974Y4064025D02*
G01*
X8636000Y3302000D01*
X8636000Y3175000D01*
X3937000Y7620000D02*
G01*
X3937000Y7726705D01*
X10922000Y7874000D02*
G01*
X4084294Y7874000D01*
X3937000Y7726705D01*
X5333974Y3810025D02*
G01*
X4699025Y3810025D01*
X3937000Y3048000D01*
X5333974Y3810025D02*
G01*
X6223000Y2921000D01*
X8636000Y2921000D01*
X2159000Y6477000D02*
G01*
X2159000Y7112000D01*
X1905000Y7366000D01*
X5333974Y4826025D02*
G01*
X3555974Y4826025D01*
X1905000Y6477000D01*
X10922000Y4572000D02*
G01*
X8127949Y4572000D01*
X7873974Y4318025D01*
X10922000Y4826000D02*
G01*
X7874000Y4826000D01*
X7873974Y4826025D01*
X10922000Y5080000D02*
G01*
X8382000Y5080000D01*
X7873974Y5588025D01*
X10922000Y6096000D02*
G01*
X10815294Y6096000D01*
X10922000Y7620000D02*
G01*
X6604000Y7620000D01*
X6604000Y4318000D01*
X5334000Y4318000D01*
X4191000Y7620000D02*
G01*
X5842000Y7620000D01*
X5842000Y4572000D01*
X5334000Y4572000D01*
X8636000Y2921000D02*
G01*
X9271000Y2921000D01*
X10922000Y3810000D01*
X11176000Y4064000D01*
X11176000Y4572000D01*
X11176000Y7366000D01*
X10922000Y7366000D01*
X10922000Y5334000D02*
G01*
X10414000Y5334000D01*
X7873974Y5842025D01*
X10922000Y5588000D02*
G01*
X10414000Y5588000D01*
X7873974Y6096025D01*
X10922000Y5842000D02*
G01*
X10414000Y5842000D01*
X7873974Y6350025D01*
X10815294Y6096000D02*
G01*
X10160000Y6096000D01*
X8382000Y7112000D01*
X8382000Y7112000D01*
X8382000Y7112000D01*
X7873974Y7112025D01*
X3937000Y3048000D02*
G01*
X4064000Y2794000D01*
X3048000Y2794000D01*
X1016000Y2794000D01*
X1016000Y3810000D01*
X1397000Y6477000D01*
X1651000Y7366000D02*
G01*
X1651000Y7513297D01*
X1778000Y7874000D01*
X1778000Y7874000D02*
G01*
X1778000Y7874000D01*
X1778000Y7874000D01*
X3810000Y7874000D01*
X3937000Y7726679D01*
D11*
G01*
X3683000Y3048000D03*
D12*
G01*
X3937000Y3048000D03*
D11*
G01*
X3937000Y7620000D03*
D12*
G01*
X4191000Y7620000D03*
D13*
G01*
X1651000Y7366000D03*
D14*
G01*
X1905000Y7366000D03*
D13*
G01*
X8636000Y3175000D03*
D14*
G01*
X8636000Y2921000D03*
D15*
G01*
X5333974Y7366025D03*
D17*
G01*
X5333974Y7112025D03*
G01*
X5333974Y6858025D03*
G01*
X5333974Y6604025D03*
G01*
X5333974Y6350025D03*
G01*
X5333974Y6096025D03*
G01*
X5333974Y5842025D03*
G01*
X5333974Y5588025D03*
G01*
X5333974Y5334025D03*
G01*
X5333974Y5080025D03*
G01*
X5333974Y4826025D03*
G01*
X5333974Y4572025D03*
G01*
X5333974Y4318025D03*
G01*
X5333974Y4064025D03*
G01*
X5333974Y3810025D03*
G01*
X7873974Y3810025D03*
G01*
X7873974Y4064025D03*
G01*
X7873974Y4318025D03*
G01*
X7873974Y4572025D03*
G01*
X7873974Y4826025D03*
G01*
X7873974Y5080025D03*
G01*
X7873974Y5334025D03*
G01*
X7873974Y5588025D03*
G01*
X7873974Y5842025D03*
G01*
X7873974Y6096025D03*
G01*
X7873974Y6350025D03*
G01*
X7873974Y6604025D03*
G01*
X7873974Y6858025D03*
G01*
X7873974Y7112025D03*
G01*
X7873974Y7366025D03*
D18*
G01*
X3175000Y6477000D03*
G01*
X2921000Y6477000D03*
G01*
X2667000Y6477000D03*
G01*
X2413000Y6477000D03*
G01*
X2159000Y6477000D03*
G01*
X1905000Y6477000D03*
G01*
X1651000Y6477000D03*
G01*
X1397000Y6477000D03*
G01*
X1397000Y4191000D03*
G01*
X1651000Y4191000D03*
G01*
X1905000Y4191000D03*
G01*
X2159000Y4191000D03*
G01*
X2413000Y4191000D03*
G01*
X2667000Y4191000D03*
G01*
X2921000Y4191000D03*
G01*
X3175000Y4191000D03*
D13*
G01*
X10922000Y6096000D03*
D14*
G01*
X10922000Y5842000D03*
G01*
X10922000Y5588000D03*
G01*
X10922000Y5334000D03*
G01*
X10922000Y5080000D03*
G01*
X10922000Y4826000D03*
G01*
X10922000Y4572000D03*
G01*
X10922000Y4318000D03*
G01*
X10922000Y7366000D03*
G01*
X10922000Y7620000D03*
D13*
G01*
X10922000Y7874000D03*
M02*
