G04 Layer: BottomLayer*
G04 EasyEDA v6.5.51, 2025-11-27 18:45:45*
G04 165794e495e04085a6bddc9ff9194116,e0a4688c9a4c477ab9b1abdd6ae47455,10*
G04 Gerber Generator version 0.2*
G04 Scale: 100 percent, Rotated: No, Reflected: No *
G04 Dimensions in millimeters *
G04 leading zeros omitted , absolute positions ,4 integer and 5 decimal *
%FSLAX45Y45*%
%MOMM*%

%ADD10R,1.7000X1.5748*%
%ADD11C,1.7000*%
%ADD12R,1.5748X1.5748*%
%ADD13C,1.5748*%
%ADD14R,1.5240X1.5240*%
%ADD15C,1.5240*%
%ADD16C,1.5000*%
%ADD17C,0.0121*%

%LPD*%
D10*
G01*
X3683000Y3048000D03*
D11*
G01*
X3937000Y3048000D03*
D10*
G01*
X3937000Y7620000D03*
D11*
G01*
X4191000Y7620000D03*
D12*
G01*
X1651000Y7366000D03*
D13*
G01*
X1905000Y7366000D03*
D12*
G01*
X8636000Y3175000D03*
D13*
G01*
X8636000Y2921000D03*
D14*
G01*
X5333974Y7366025D03*
D15*
G01*
X5333974Y7112025D03*
G01*
X5333974Y6858025D03*
G01*
X5333974Y6604025D03*
G01*
X5333974Y6350025D03*
G01*
X5333974Y6096025D03*
G01*
X5333974Y5842025D03*
G01*
X5333974Y5588025D03*
G01*
X5333974Y5334025D03*
G01*
X5333974Y5080025D03*
G01*
X5333974Y4826025D03*
G01*
X5333974Y4572025D03*
G01*
X5333974Y4318025D03*
G01*
X5333974Y4064025D03*
G01*
X5333974Y3810025D03*
G01*
X7873974Y3810025D03*
G01*
X7873974Y4064025D03*
G01*
X7873974Y4318025D03*
G01*
X7873974Y4572025D03*
G01*
X7873974Y4826025D03*
G01*
X7873974Y5080025D03*
G01*
X7873974Y5334025D03*
G01*
X7873974Y5588025D03*
G01*
X7873974Y5842025D03*
G01*
X7873974Y6096025D03*
G01*
X7873974Y6350025D03*
G01*
X7873974Y6604025D03*
G01*
X7873974Y6858025D03*
G01*
X7873974Y7112025D03*
G01*
X7873974Y7366025D03*
D16*
G01*
X3175000Y6477000D03*
G01*
X2921000Y6477000D03*
G01*
X2667000Y6477000D03*
G01*
X2413000Y6477000D03*
G01*
X2159000Y6477000D03*
G01*
X1905000Y6477000D03*
G01*
X1651000Y6477000D03*
G01*
X1397000Y6477000D03*
G01*
X1397000Y4191000D03*
G01*
X1651000Y4191000D03*
G01*
X1905000Y4191000D03*
G01*
X2159000Y4191000D03*
G01*
X2413000Y4191000D03*
G01*
X2667000Y4191000D03*
G01*
X2921000Y4191000D03*
G01*
X3175000Y4191000D03*
D12*
G01*
X10922000Y6096000D03*
D13*
G01*
X10922000Y5842000D03*
G01*
X10922000Y5588000D03*
G01*
X10922000Y5334000D03*
G01*
X10922000Y5080000D03*
G01*
X10922000Y4826000D03*
G01*
X10922000Y4572000D03*
G01*
X10922000Y4318000D03*
G01*
X10922000Y7366000D03*
G01*
X10922000Y7620000D03*
D12*
G01*
X10922000Y7874000D03*
M02*
