G04 Layer: TopSilkscreenLayer*
G04 EasyEDA v6.5.51, 2025-11-27 18:45:45*
G04 165794e495e04085a6bddc9ff9194116,e0a4688c9a4c477ab9b1abdd6ae47455,10*
G04 Gerber Generator version 0.2*
G04 Scale: 100 percent, Rotated: No, Reflected: No *
G04 Dimensions in millimeters *
G04 leading zeros omitted , absolute positions ,4 integer and 5 decimal *
%FSLAX45Y45*%
%MOMM*%

%ADD10C,0.1524*%
%ADD11C,0.1501*%
%ADD12C,0.2032*%
%ADD13C,0.2030*%
%ADD14C,0.1199*%
%ADD15C,0.2540*%
%ADD16C,1.0000*%
%ADD17C,0.0118*%

%LPD*%
D10*
X3859529Y3303015D02*
G01*
X3807713Y3303015D01*
X3802379Y3256279D01*
X3807713Y3261360D01*
X3823208Y3266694D01*
X3838956Y3266694D01*
X3854450Y3261360D01*
X3864863Y3251200D01*
X3869943Y3235452D01*
X3869943Y3225037D01*
X3864863Y3209544D01*
X3854450Y3199129D01*
X3838956Y3194050D01*
X3823208Y3194050D01*
X3807713Y3199129D01*
X3802379Y3204210D01*
X3797300Y3214623D01*
X3904234Y3303015D02*
G01*
X3945890Y3194050D01*
X3987545Y3303015D02*
G01*
X3945890Y3194050D01*
X4115308Y3323844D02*
G01*
X4021836Y3157473D01*
X4227575Y3277107D02*
G01*
X4222241Y3287521D01*
X4211827Y3297936D01*
X4201413Y3303015D01*
X4180840Y3303015D01*
X4170425Y3297936D01*
X4160011Y3287521D01*
X4154677Y3277107D01*
X4149597Y3261360D01*
X4149597Y3235452D01*
X4154677Y3219957D01*
X4160011Y3209544D01*
X4170425Y3199129D01*
X4180840Y3194050D01*
X4201413Y3194050D01*
X4211827Y3199129D01*
X4222241Y3209544D01*
X4227575Y3219957D01*
X4227575Y3235452D01*
X4201413Y3235452D02*
G01*
X4227575Y3235452D01*
X4261865Y3303015D02*
G01*
X4261865Y3194050D01*
X4261865Y3303015D02*
G01*
X4334509Y3194050D01*
X4334509Y3303015D02*
G01*
X4334509Y3194050D01*
X4368800Y3303015D02*
G01*
X4368800Y3194050D01*
X4368800Y3303015D02*
G01*
X4405122Y3303015D01*
X4420870Y3297936D01*
X4431029Y3287521D01*
X4436363Y3277107D01*
X4441443Y3261360D01*
X4441443Y3235452D01*
X4436363Y3219957D01*
X4431029Y3209544D01*
X4420870Y3199129D01*
X4405122Y3194050D01*
X4368800Y3194050D01*
X4051300Y7875015D02*
G01*
X4051300Y7766050D01*
X4051300Y7875015D02*
G01*
X4098036Y7875015D01*
X4113529Y7869936D01*
X4118863Y7864602D01*
X4123943Y7854187D01*
X4123943Y7843773D01*
X4118863Y7833360D01*
X4113529Y7828279D01*
X4098036Y7823200D01*
X4051300Y7823200D02*
G01*
X4098036Y7823200D01*
X4113529Y7817865D01*
X4118863Y7812786D01*
X4123943Y7802371D01*
X4123943Y7786623D01*
X4118863Y7776210D01*
X4113529Y7771129D01*
X4098036Y7766050D01*
X4051300Y7766050D01*
X4158234Y7875015D02*
G01*
X4158234Y7797037D01*
X4163568Y7781544D01*
X4173981Y7771129D01*
X4189475Y7766050D01*
X4199890Y7766050D01*
X4215384Y7771129D01*
X4225797Y7781544D01*
X4231131Y7797037D01*
X4231131Y7875015D01*
X4301743Y7875015D02*
G01*
X4301743Y7766050D01*
X4265422Y7875015D02*
G01*
X4338065Y7875015D01*
X4408677Y7875015D02*
G01*
X4408677Y7766050D01*
X4372356Y7875015D02*
G01*
X4445000Y7875015D01*
X4510531Y7875015D02*
G01*
X4500118Y7869936D01*
X4489704Y7859521D01*
X4484624Y7849108D01*
X4479290Y7833360D01*
X4479290Y7807452D01*
X4484624Y7791958D01*
X4489704Y7781544D01*
X4500118Y7771129D01*
X4510531Y7766050D01*
X4531359Y7766050D01*
X4541774Y7771129D01*
X4552188Y7781544D01*
X4557268Y7791958D01*
X4562602Y7807452D01*
X4562602Y7833360D01*
X4557268Y7849108D01*
X4552188Y7859521D01*
X4541774Y7869936D01*
X4531359Y7875015D01*
X4510531Y7875015D01*
X4596891Y7875015D02*
G01*
X4596891Y7766050D01*
X4596891Y7875015D02*
G01*
X4669536Y7766050D01*
X4669536Y7875015D02*
G01*
X4669536Y7766050D01*
X4703825Y7854187D02*
G01*
X4714240Y7859521D01*
X4729734Y7875015D01*
X4729734Y7766050D01*
X1830578Y7607808D02*
G01*
X1825244Y7618221D01*
X1814829Y7628636D01*
X1804670Y7633715D01*
X1783842Y7633715D01*
X1773428Y7628636D01*
X1763013Y7618221D01*
X1757679Y7607808D01*
X1752600Y7592060D01*
X1752600Y7566152D01*
X1757679Y7550658D01*
X1763013Y7540244D01*
X1773428Y7529829D01*
X1783842Y7524750D01*
X1804670Y7524750D01*
X1814829Y7529829D01*
X1825244Y7540244D01*
X1830578Y7550658D01*
X1906270Y7633715D02*
G01*
X1864868Y7524750D01*
X1906270Y7633715D02*
G01*
X1947925Y7524750D01*
X1880362Y7561071D02*
G01*
X1932431Y7561071D01*
X1982215Y7633715D02*
G01*
X1982215Y7524750D01*
X1982215Y7633715D02*
G01*
X2023872Y7524750D01*
X2065274Y7633715D02*
G01*
X2023872Y7524750D01*
X2065274Y7633715D02*
G01*
X2065274Y7524750D01*
X2099563Y7633715D02*
G01*
X2099563Y7524750D01*
X2099563Y7633715D02*
G01*
X2146300Y7633715D01*
X2162047Y7628636D01*
X2167127Y7623302D01*
X2172461Y7612887D01*
X2172461Y7602473D01*
X2167127Y7592060D01*
X2162047Y7586979D01*
X2146300Y7581900D01*
X2099563Y7581900D02*
G01*
X2146300Y7581900D01*
X2162047Y7576565D01*
X2167127Y7571486D01*
X2172461Y7561071D01*
X2172461Y7545323D01*
X2167127Y7534910D01*
X2162047Y7529829D01*
X2146300Y7524750D01*
X2099563Y7524750D01*
X2206752Y7633715D02*
G01*
X2206752Y7555737D01*
X2211831Y7540244D01*
X2222245Y7529829D01*
X2237740Y7524750D01*
X2248154Y7524750D01*
X2263902Y7529829D01*
X2274315Y7540244D01*
X2279395Y7555737D01*
X2279395Y7633715D01*
X2350008Y7633715D02*
G01*
X2350008Y7524750D01*
X2313686Y7633715D02*
G01*
X2386329Y7633715D01*
X2457195Y7633715D02*
G01*
X2457195Y7524750D01*
X2420620Y7633715D02*
G01*
X2493518Y7633715D01*
X2559050Y7633715D02*
G01*
X2548636Y7628636D01*
X2538222Y7618221D01*
X2532888Y7607808D01*
X2527808Y7592060D01*
X2527808Y7566152D01*
X2532888Y7550658D01*
X2538222Y7540244D01*
X2548636Y7529829D01*
X2559050Y7524750D01*
X2579624Y7524750D01*
X2590038Y7529829D01*
X2600452Y7540244D01*
X2605786Y7550658D01*
X2610865Y7566152D01*
X2610865Y7592060D01*
X2605786Y7607808D01*
X2600452Y7618221D01*
X2590038Y7628636D01*
X2579624Y7633715D01*
X2559050Y7633715D01*
X2645156Y7633715D02*
G01*
X2645156Y7524750D01*
X2645156Y7633715D02*
G01*
X2717800Y7524750D01*
X2717800Y7633715D02*
G01*
X2717800Y7524750D01*
X9005315Y2794000D02*
G01*
X8896350Y2794000D01*
X9005315Y2794000D02*
G01*
X9005315Y2747263D01*
X9000236Y2731770D01*
X8994902Y2726436D01*
X8984488Y2721355D01*
X8974074Y2721355D01*
X8963659Y2726436D01*
X8958579Y2731770D01*
X8953500Y2747263D01*
X8953500Y2794000D01*
X8953500Y2757678D02*
G01*
X8896350Y2721355D01*
X9005315Y2687065D02*
G01*
X8896350Y2687065D01*
X9005315Y2687065D02*
G01*
X9005315Y2619502D01*
X8953500Y2687065D02*
G01*
X8953500Y2645410D01*
X8896350Y2687065D02*
G01*
X8896350Y2619502D01*
X9005315Y2585212D02*
G01*
X8896350Y2585212D01*
X8896350Y2585212D02*
G01*
X8896350Y2522728D01*
X9005315Y2447036D02*
G01*
X8896350Y2488437D01*
X9005315Y2447036D02*
G01*
X8896350Y2405379D01*
X8932672Y2472944D02*
G01*
X8932672Y2420873D01*
X9005315Y2371089D02*
G01*
X8953500Y2329434D01*
X8896350Y2329434D01*
X9005315Y2288031D02*
G01*
X8953500Y2329434D01*
X9005315Y2222500D02*
G01*
X9000236Y2232913D01*
X8989822Y2243328D01*
X8979408Y2248407D01*
X8963659Y2253742D01*
X8937752Y2253742D01*
X8922258Y2248407D01*
X8911843Y2243328D01*
X8901429Y2232913D01*
X8896350Y2222500D01*
X8896350Y2201671D01*
X8901429Y2191257D01*
X8911843Y2180844D01*
X8922258Y2175763D01*
X8937752Y2170429D01*
X8963659Y2170429D01*
X8979408Y2175763D01*
X8989822Y2180844D01*
X9000236Y2191257D01*
X9005315Y2201671D01*
X9005315Y2222500D01*
X9005315Y2136139D02*
G01*
X8927338Y2136139D01*
X8911843Y2131060D01*
X8901429Y2120645D01*
X8896350Y2105152D01*
X8896350Y2094737D01*
X8901429Y2078989D01*
X8911843Y2068829D01*
X8927338Y2063495D01*
X9005315Y2063495D01*
X9005315Y1992884D02*
G01*
X8896350Y1992884D01*
X9005315Y2029205D02*
G01*
X9005315Y1956562D01*
X6578600Y8116315D02*
G01*
X6578600Y8007350D01*
X6578600Y8116315D02*
G01*
X6646163Y8116315D01*
X6578600Y8064500D02*
G01*
X6620256Y8064500D01*
X6578600Y8007350D02*
G01*
X6646163Y8007350D01*
X6753097Y8100821D02*
G01*
X6742684Y8111236D01*
X6727190Y8116315D01*
X6706361Y8116315D01*
X6690868Y8111236D01*
X6680454Y8100821D01*
X6680454Y8090408D01*
X6685534Y8079994D01*
X6690868Y8074660D01*
X6701281Y8069579D01*
X6732270Y8059165D01*
X6742684Y8054086D01*
X6748018Y8048752D01*
X6753097Y8038337D01*
X6753097Y8022844D01*
X6742684Y8012429D01*
X6727190Y8007350D01*
X6706361Y8007350D01*
X6690868Y8012429D01*
X6680454Y8022844D01*
X6787388Y8116315D02*
G01*
X6787388Y8007350D01*
X6787388Y8116315D02*
G01*
X6834124Y8116315D01*
X6849872Y8111236D01*
X6854952Y8105902D01*
X6860286Y8095487D01*
X6860286Y8079994D01*
X6854952Y8069579D01*
X6849872Y8064500D01*
X6834124Y8059165D01*
X6787388Y8059165D01*
X6904990Y8116315D02*
G01*
X6962140Y8116315D01*
X6930897Y8074660D01*
X6946391Y8074660D01*
X6956806Y8069579D01*
X6962140Y8064500D01*
X6967220Y8048752D01*
X6967220Y8038337D01*
X6962140Y8022844D01*
X6951725Y8012429D01*
X6935977Y8007350D01*
X6920484Y8007350D01*
X6904990Y8012429D01*
X6899656Y8017510D01*
X6894575Y8027923D01*
X7006590Y8090408D02*
G01*
X7006590Y8095487D01*
X7011924Y8105902D01*
X7017004Y8111236D01*
X7027418Y8116315D01*
X7048245Y8116315D01*
X7058659Y8111236D01*
X7063740Y8105902D01*
X7069074Y8095487D01*
X7069074Y8085073D01*
X7063740Y8074660D01*
X7053579Y8059165D01*
X7001509Y8007350D01*
X7074154Y8007350D01*
D11*
X5613400Y3428237D02*
G01*
X5613400Y3332987D01*
X5613400Y3428237D02*
G01*
X5672581Y3428237D01*
X5613400Y3382771D02*
G01*
X5649722Y3382771D01*
X5613400Y3332987D02*
G01*
X5672581Y3332987D01*
X5702554Y3396487D02*
G01*
X5702554Y3332987D01*
X5702554Y3378454D02*
G01*
X5716015Y3391915D01*
X5725159Y3396487D01*
X5738875Y3396487D01*
X5748020Y3391915D01*
X5752591Y3378454D01*
X5752591Y3332987D01*
X5836920Y3396487D02*
G01*
X5836920Y3332987D01*
X5836920Y3382771D02*
G01*
X5828029Y3391915D01*
X5818886Y3396487D01*
X5805170Y3396487D01*
X5796025Y3391915D01*
X5787136Y3382771D01*
X5782563Y3369310D01*
X5782563Y3360165D01*
X5787136Y3346450D01*
X5796025Y3337305D01*
X5805170Y3332987D01*
X5818886Y3332987D01*
X5828029Y3337305D01*
X5836920Y3346450D01*
X5867145Y3428237D02*
G01*
X5867145Y3332987D01*
X5867145Y3382771D02*
G01*
X5876036Y3391915D01*
X5885179Y3396487D01*
X5898895Y3396487D01*
X5908040Y3391915D01*
X5916929Y3382771D01*
X5921502Y3369310D01*
X5921502Y3360165D01*
X5916929Y3346450D01*
X5908040Y3337305D01*
X5898895Y3332987D01*
X5885179Y3332987D01*
X5876036Y3337305D01*
X5867145Y3346450D01*
X5951474Y3428237D02*
G01*
X5951474Y3332987D01*
X5981700Y3369310D02*
G01*
X6036056Y3369310D01*
X6036056Y3378454D01*
X6031484Y3387344D01*
X6026911Y3391915D01*
X6018022Y3396487D01*
X6004306Y3396487D01*
X5995161Y3391915D01*
X5986018Y3382771D01*
X5981700Y3369310D01*
X5981700Y3360165D01*
X5986018Y3346450D01*
X5995161Y3337305D01*
X6004306Y3332987D01*
X6018022Y3332987D01*
X6026911Y3337305D01*
X6036056Y3346450D01*
X7213600Y3428237D02*
G01*
X7213600Y3332987D01*
X7213600Y3428237D02*
G01*
X7254493Y3428237D01*
X7268209Y3423665D01*
X7272781Y3419347D01*
X7277354Y3410204D01*
X7277354Y3401060D01*
X7272781Y3391915D01*
X7268209Y3387344D01*
X7254493Y3382771D01*
X7213600Y3382771D02*
G01*
X7254493Y3382771D01*
X7268209Y3378454D01*
X7272781Y3373881D01*
X7277354Y3364737D01*
X7277354Y3351021D01*
X7272781Y3341878D01*
X7268209Y3337305D01*
X7254493Y3332987D01*
X7213600Y3332987D01*
X7329931Y3396487D02*
G01*
X7320788Y3391915D01*
X7311897Y3382771D01*
X7307325Y3369310D01*
X7307325Y3360165D01*
X7311897Y3346450D01*
X7320788Y3337305D01*
X7329931Y3332987D01*
X7343647Y3332987D01*
X7352791Y3337305D01*
X7361681Y3346450D01*
X7366254Y3360165D01*
X7366254Y3369310D01*
X7361681Y3382771D01*
X7352791Y3391915D01*
X7343647Y3396487D01*
X7329931Y3396487D01*
X7419086Y3396487D02*
G01*
X7409941Y3391915D01*
X7400797Y3382771D01*
X7396225Y3369310D01*
X7396225Y3360165D01*
X7400797Y3346450D01*
X7409941Y3337305D01*
X7419086Y3332987D01*
X7432802Y3332987D01*
X7441691Y3337305D01*
X7450836Y3346450D01*
X7455408Y3360165D01*
X7455408Y3369310D01*
X7450836Y3382771D01*
X7441691Y3391915D01*
X7432802Y3396487D01*
X7419086Y3396487D01*
X7499095Y3428237D02*
G01*
X7499095Y3351021D01*
X7503668Y3337305D01*
X7512811Y3332987D01*
X7521702Y3332987D01*
X7485379Y3396487D02*
G01*
X7517129Y3396487D01*
X6484111Y3117850D02*
G01*
X6484111Y3049778D01*
X6488429Y3036062D01*
X6497574Y3026918D01*
X6511290Y3022345D01*
X6520434Y3022345D01*
X6533895Y3026918D01*
X6543040Y3036062D01*
X6547611Y3049778D01*
X6547611Y3117850D01*
X6641338Y3104387D02*
G01*
X6632193Y3113278D01*
X6618477Y3117850D01*
X6600443Y3117850D01*
X6586727Y3113278D01*
X6577584Y3104387D01*
X6577584Y3095244D01*
X6582156Y3086100D01*
X6586727Y3081528D01*
X6595872Y3076955D01*
X6623050Y3067812D01*
X6632193Y3063494D01*
X6636765Y3058921D01*
X6641338Y3049778D01*
X6641338Y3036062D01*
X6632193Y3026918D01*
X6618477Y3022345D01*
X6600443Y3022345D01*
X6586727Y3026918D01*
X6577584Y3036062D01*
X6671309Y3117850D02*
G01*
X6671309Y3022345D01*
X6671309Y3117850D02*
G01*
X6712204Y3117850D01*
X6725920Y3113278D01*
X6730491Y3108705D01*
X6734809Y3099815D01*
X6734809Y3090671D01*
X6730491Y3081528D01*
X6725920Y3076955D01*
X6712204Y3072384D01*
X6671309Y3072384D02*
G01*
X6712204Y3072384D01*
X6725920Y3067812D01*
X6730491Y3063494D01*
X6734809Y3054350D01*
X6734809Y3040634D01*
X6730491Y3031489D01*
X6725920Y3026918D01*
X6712204Y3022345D01*
X6671309Y3022345D01*
D12*
X5461000Y7401052D02*
G01*
X5461000Y7305547D01*
X5461000Y7401052D02*
G01*
X5520181Y7401052D01*
X5461000Y7355586D02*
G01*
X5497322Y7355586D01*
X5461000Y7305547D02*
G01*
X5520181Y7305547D01*
X5550154Y7401052D02*
G01*
X5550154Y7305547D01*
X5550154Y7401052D02*
G01*
X5613654Y7305547D01*
X5613654Y7401052D02*
G01*
X5613654Y7305547D01*
X5455714Y7146912D02*
G01*
X5496984Y7053440D01*
X5528256Y7150714D02*
G01*
X5496984Y7053440D01*
X5558188Y7152284D02*
G01*
X5563186Y7056909D01*
X5558188Y7152284D02*
G01*
X5599026Y7154423D01*
X5612963Y7150577D01*
X5617768Y7146249D01*
X5622813Y7137356D01*
X5623529Y7123661D01*
X5619429Y7114542D01*
X5615104Y7109739D01*
X5601644Y7104453D01*
X5560806Y7102314D01*
X5802525Y7183147D02*
G01*
X5728454Y7033778D01*
X5939680Y7172276D02*
G01*
X5908154Y7074989D01*
X5939680Y7172276D02*
G01*
X5980950Y7078804D01*
X5920188Y7107415D02*
G01*
X5965593Y7109792D01*
X6051288Y7178126D02*
G01*
X6009220Y7112081D01*
X6077198Y7115642D01*
X6051288Y7178126D02*
G01*
X6056287Y7082754D01*
X6106652Y7126343D02*
G01*
X6188580Y7130635D01*
X6224531Y7187206D02*
G01*
X6274501Y7189825D01*
X6249276Y7151875D01*
X6262971Y7152594D01*
X6272075Y7148746D01*
X6276881Y7144420D01*
X6282164Y7130963D01*
X6282644Y7121832D01*
X6278796Y7107895D01*
X6270383Y7098550D01*
X6256924Y7093267D01*
X6243228Y7092551D01*
X6229291Y7096399D01*
X6224739Y7100737D01*
X6219708Y7109376D01*
X6364251Y7180793D02*
G01*
X6359207Y7189685D01*
X6345524Y7193546D01*
X6336393Y7193069D01*
X6322933Y7187783D01*
X6314521Y7173607D01*
X6311138Y7150793D01*
X6312334Y7127966D01*
X6317858Y7109942D01*
X6327454Y7101542D01*
X6341391Y7097694D01*
X6345956Y7097933D01*
X6359161Y7103203D01*
X6367828Y7112561D01*
X6371673Y7126498D01*
X6371435Y7131062D01*
X6366151Y7144522D01*
X6356543Y7153173D01*
X6342872Y7156780D01*
X6338305Y7156541D01*
X6324836Y7151512D01*
X6316182Y7141903D01*
X6312334Y7127966D01*
X5455714Y6892912D02*
G01*
X5496984Y6799440D01*
X5528256Y6896714D02*
G01*
X5496984Y6799440D01*
X5558188Y6898284D02*
G01*
X5563186Y6802909D01*
X5558188Y6898284D02*
G01*
X5626854Y6806247D01*
X5621855Y6901621D02*
G01*
X5626854Y6806247D01*
X5802525Y6929147D02*
G01*
X5728454Y6779778D01*
X5939680Y6918276D02*
G01*
X5908154Y6820989D01*
X5939680Y6918276D02*
G01*
X5980950Y6824804D01*
X5920188Y6853415D02*
G01*
X5965593Y6855792D01*
X6069296Y6925071D02*
G01*
X6029144Y6827332D01*
X6005883Y6921746D02*
G01*
X6069296Y6925071D01*
X5457474Y6638991D02*
G01*
X5460806Y6543545D01*
X5457474Y6638991D02*
G01*
X5489204Y6640098D01*
X5503072Y6636009D01*
X5512528Y6627187D01*
X5517418Y6618208D01*
X5522465Y6604662D01*
X5523255Y6582069D01*
X5519163Y6568201D01*
X5514914Y6558904D01*
X5506087Y6549699D01*
X5492539Y6544652D01*
X5460806Y6543545D01*
X5560026Y6642572D02*
G01*
X5610034Y6644317D01*
X5584151Y6606816D01*
X5597857Y6607294D01*
X5606892Y6603288D01*
X5611622Y6598879D01*
X5616668Y6585330D01*
X5616989Y6576192D01*
X5612899Y6562326D01*
X5604070Y6553121D01*
X5590776Y6548084D01*
X5577067Y6547604D01*
X5563201Y6551696D01*
X5558726Y6556113D01*
X5553847Y6564838D01*
X5689996Y6647111D02*
G01*
X5646783Y6581808D01*
X5715068Y6584193D01*
X5689996Y6647111D02*
G01*
X5693328Y6551663D01*
X5893965Y6672277D02*
G01*
X5817044Y6524216D01*
X6030655Y6659006D02*
G01*
X5997689Y6562293D01*
X6030655Y6659006D02*
G01*
X6070544Y6564838D01*
X6010290Y6594502D02*
G01*
X6055728Y6596087D01*
X6102532Y6638643D02*
G01*
X6102372Y6643212D01*
X6106368Y6652501D01*
X6110777Y6657230D01*
X6119756Y6662117D01*
X6138034Y6662755D01*
X6147330Y6658505D01*
X6151806Y6654086D01*
X6156695Y6645109D01*
X6157013Y6635970D01*
X6152763Y6626672D01*
X6144348Y6612907D01*
X6100498Y6565882D01*
X6163960Y6568099D01*
X5457474Y6384991D02*
G01*
X5460806Y6289545D01*
X5457474Y6384991D02*
G01*
X5489204Y6386098D01*
X5503072Y6382009D01*
X5512528Y6373187D01*
X5517418Y6364208D01*
X5522465Y6350662D01*
X5523255Y6328069D01*
X5519163Y6314201D01*
X5514914Y6304904D01*
X5506087Y6295699D01*
X5492539Y6290652D01*
X5460806Y6289545D01*
X5560026Y6388572D02*
G01*
X5610034Y6390317D01*
X5584151Y6352816D01*
X5597857Y6353294D01*
X5606892Y6349288D01*
X5611622Y6344879D01*
X5616668Y6331330D01*
X5616989Y6322192D01*
X5612899Y6308326D01*
X5604070Y6299121D01*
X5590776Y6294084D01*
X5577067Y6293604D01*
X5563201Y6297696D01*
X5558726Y6302113D01*
X5553847Y6310838D01*
X5699135Y6393428D02*
G01*
X5653697Y6391843D01*
X5650555Y6350812D01*
X5654974Y6355288D01*
X5668520Y6360337D01*
X5681974Y6360807D01*
X5695843Y6356715D01*
X5705292Y6348150D01*
X5710339Y6334602D01*
X5710659Y6325463D01*
X5706567Y6311597D01*
X5697740Y6302392D01*
X5684192Y6297345D01*
X5670737Y6296875D01*
X5656869Y6300965D01*
X5652142Y6305374D01*
X5647263Y6314099D01*
X5889396Y6418117D02*
G01*
X5812729Y6270063D01*
X6026343Y6404856D02*
G01*
X5993122Y6308133D01*
X6026343Y6404856D02*
G01*
X6065974Y6310678D01*
X6005720Y6340342D02*
G01*
X6051158Y6341930D01*
X6101732Y6407487D02*
G01*
X6151486Y6409225D01*
X6125603Y6371724D01*
X6139309Y6372202D01*
X6148598Y6368206D01*
X6153073Y6363787D01*
X6158123Y6350238D01*
X6158440Y6341102D01*
X6154351Y6327233D01*
X6145776Y6318039D01*
X6132228Y6312992D01*
X6118519Y6312512D01*
X6104907Y6316611D01*
X6100178Y6321021D01*
X6095298Y6329746D01*
X5457474Y6130991D02*
G01*
X5460806Y6035545D01*
X5457474Y6130991D02*
G01*
X5489204Y6132098D01*
X5503072Y6128009D01*
X5512528Y6119187D01*
X5517418Y6110208D01*
X5522465Y6096662D01*
X5523255Y6074069D01*
X5519163Y6060201D01*
X5514914Y6050904D01*
X5506087Y6041699D01*
X5492539Y6036652D01*
X5460806Y6035545D01*
X5560026Y6134572D02*
G01*
X5610034Y6136317D01*
X5584151Y6098816D01*
X5597857Y6099294D01*
X5606892Y6095288D01*
X5611622Y6090879D01*
X5616668Y6077330D01*
X5616989Y6068192D01*
X5612899Y6054326D01*
X5604070Y6045121D01*
X5590776Y6040084D01*
X5577067Y6039604D01*
X5563201Y6043696D01*
X5558726Y6048113D01*
X5553847Y6056838D01*
X5649925Y6114836D02*
G01*
X5649765Y6119406D01*
X5654017Y6128705D01*
X5658426Y6133431D01*
X5667405Y6138321D01*
X5685426Y6138951D01*
X5694725Y6134699D01*
X5699455Y6130289D01*
X5704342Y6121311D01*
X5704662Y6112174D01*
X5700412Y6102875D01*
X5691743Y6089103D01*
X5647890Y6042078D01*
X5711606Y6044303D01*
X5889396Y6164117D02*
G01*
X5812729Y6016063D01*
X6026343Y6150856D02*
G01*
X5993122Y6054133D01*
X6026343Y6150856D02*
G01*
X6065974Y6056678D01*
X6005720Y6086342D02*
G01*
X6051158Y6087930D01*
X6119756Y6154117D02*
G01*
X6106208Y6149070D01*
X6097803Y6135052D01*
X6094023Y6112299D01*
X6094501Y6098593D01*
X6099868Y6075906D01*
X6109223Y6062761D01*
X6123089Y6058672D01*
X6132228Y6058992D01*
X6145776Y6064039D01*
X6154191Y6077803D01*
X6157963Y6100808D01*
X6157483Y6114516D01*
X6152126Y6136949D01*
X6142761Y6150345D01*
X6128895Y6154437D01*
X6119756Y6154117D01*
X5457474Y5876991D02*
G01*
X5460806Y5781545D01*
X5457474Y5876991D02*
G01*
X5489204Y5878098D01*
X5503072Y5874009D01*
X5512528Y5865187D01*
X5517418Y5856208D01*
X5522465Y5842662D01*
X5523255Y5820069D01*
X5519163Y5806201D01*
X5514914Y5796904D01*
X5506087Y5787699D01*
X5492539Y5782652D01*
X5460806Y5781545D01*
X5560026Y5880572D02*
G01*
X5610034Y5882317D01*
X5584151Y5844816D01*
X5597857Y5845294D01*
X5606892Y5841288D01*
X5611622Y5836879D01*
X5616668Y5823330D01*
X5616989Y5814192D01*
X5612899Y5800326D01*
X5604070Y5791121D01*
X5590776Y5786084D01*
X5577067Y5785604D01*
X5563201Y5789696D01*
X5558726Y5794113D01*
X5553847Y5802838D01*
X5653697Y5883843D02*
G01*
X5703704Y5885588D01*
X5677819Y5848085D01*
X5691273Y5848555D01*
X5700562Y5844560D01*
X5705292Y5840150D01*
X5710339Y5826602D01*
X5710659Y5817463D01*
X5706567Y5803597D01*
X5697740Y5794392D01*
X5684192Y5789345D01*
X5670737Y5788875D01*
X5656869Y5792965D01*
X5652142Y5797374D01*
X5647263Y5806099D01*
X5889396Y5910117D02*
G01*
X5812729Y5762063D01*
X6026343Y5896856D02*
G01*
X5993122Y5800133D01*
X6026343Y5896856D02*
G01*
X6065974Y5802678D01*
X6005720Y5832342D02*
G01*
X6051158Y5833930D01*
X6093233Y5880892D02*
G01*
X6102212Y5885781D01*
X6115187Y5899957D01*
X6118519Y5804512D01*
X5461000Y4378452D02*
G01*
X5461000Y4282947D01*
X5461000Y4378452D02*
G01*
X5492750Y4378452D01*
X5506465Y4373879D01*
X5515609Y4364736D01*
X5520181Y4355592D01*
X5524754Y4341876D01*
X5524754Y4319270D01*
X5520181Y4305554D01*
X5515609Y4296410D01*
X5506465Y4287520D01*
X5492750Y4282947D01*
X5461000Y4282947D01*
X5554725Y4360163D02*
G01*
X5563615Y4364736D01*
X5577331Y4378452D01*
X5577331Y4282947D01*
X5616447Y4378452D02*
G01*
X5666486Y4378452D01*
X5639308Y4341876D01*
X5652770Y4341876D01*
X5661913Y4337557D01*
X5666486Y4332986D01*
X5671058Y4319270D01*
X5671058Y4310126D01*
X5666486Y4296410D01*
X5657341Y4287520D01*
X5643625Y4282947D01*
X5630163Y4282947D01*
X5616447Y4287520D01*
X5611875Y4292092D01*
X5607304Y4300981D01*
X5461000Y4607052D02*
G01*
X5461000Y4511547D01*
X5461000Y4607052D02*
G01*
X5492750Y4607052D01*
X5506465Y4602479D01*
X5515609Y4593336D01*
X5520181Y4584192D01*
X5524754Y4570476D01*
X5524754Y4547870D01*
X5520181Y4534154D01*
X5515609Y4525010D01*
X5506465Y4516120D01*
X5492750Y4511547D01*
X5461000Y4511547D01*
X5554725Y4588763D02*
G01*
X5563615Y4593336D01*
X5577331Y4607052D01*
X5577331Y4511547D01*
X5611875Y4584192D02*
G01*
X5611875Y4588763D01*
X5616447Y4597907D01*
X5621020Y4602479D01*
X5630163Y4607052D01*
X5648197Y4607052D01*
X5657341Y4602479D01*
X5661913Y4597907D01*
X5666486Y4588763D01*
X5666486Y4579620D01*
X5661913Y4570476D01*
X5652770Y4557013D01*
X5607304Y4511547D01*
X5671058Y4511547D01*
X5461000Y4861052D02*
G01*
X5461000Y4765547D01*
X5461000Y4861052D02*
G01*
X5492750Y4861052D01*
X5506465Y4856479D01*
X5515609Y4847336D01*
X5520181Y4838192D01*
X5524754Y4824476D01*
X5524754Y4801870D01*
X5520181Y4788154D01*
X5515609Y4779010D01*
X5506465Y4770120D01*
X5492750Y4765547D01*
X5461000Y4765547D01*
X5554725Y4842763D02*
G01*
X5563615Y4847336D01*
X5577331Y4861052D01*
X5577331Y4765547D01*
X5652770Y4861052D02*
G01*
X5607304Y4797297D01*
X5675629Y4797297D01*
X5652770Y4861052D02*
G01*
X5652770Y4765547D01*
X5461000Y5115052D02*
G01*
X5461000Y5019547D01*
X5461000Y5115052D02*
G01*
X5492750Y5115052D01*
X5506465Y5110479D01*
X5515609Y5101336D01*
X5520181Y5092192D01*
X5524754Y5078476D01*
X5524754Y5055870D01*
X5520181Y5042154D01*
X5515609Y5033010D01*
X5506465Y5024120D01*
X5492750Y5019547D01*
X5461000Y5019547D01*
X5559297Y5092192D02*
G01*
X5559297Y5096763D01*
X5563615Y5105907D01*
X5568188Y5110479D01*
X5577331Y5115052D01*
X5595620Y5115052D01*
X5604509Y5110479D01*
X5609081Y5105907D01*
X5613654Y5096763D01*
X5613654Y5087620D01*
X5609081Y5078476D01*
X5600191Y5065013D01*
X5554725Y5019547D01*
X5618225Y5019547D01*
X5711952Y5115052D02*
G01*
X5666486Y5019547D01*
X5648197Y5115052D02*
G01*
X5711952Y5115052D01*
X5461000Y5369052D02*
G01*
X5461000Y5273547D01*
X5461000Y5369052D02*
G01*
X5492750Y5369052D01*
X5506465Y5364479D01*
X5515609Y5355336D01*
X5520181Y5346192D01*
X5524754Y5332476D01*
X5524754Y5309870D01*
X5520181Y5296154D01*
X5515609Y5287010D01*
X5506465Y5278120D01*
X5492750Y5273547D01*
X5461000Y5273547D01*
X5559297Y5346192D02*
G01*
X5559297Y5350763D01*
X5563615Y5359907D01*
X5568188Y5364479D01*
X5577331Y5369052D01*
X5595620Y5369052D01*
X5604509Y5364479D01*
X5609081Y5359907D01*
X5613654Y5350763D01*
X5613654Y5341620D01*
X5609081Y5332476D01*
X5600191Y5319013D01*
X5554725Y5273547D01*
X5618225Y5273547D01*
X5702808Y5355336D02*
G01*
X5698236Y5364479D01*
X5684520Y5369052D01*
X5675629Y5369052D01*
X5661913Y5364479D01*
X5652770Y5350763D01*
X5648197Y5328157D01*
X5648197Y5305297D01*
X5652770Y5287010D01*
X5661913Y5278120D01*
X5675629Y5273547D01*
X5680202Y5273547D01*
X5693663Y5278120D01*
X5702808Y5287010D01*
X5707379Y5300726D01*
X5707379Y5305297D01*
X5702808Y5319013D01*
X5693663Y5328157D01*
X5680202Y5332476D01*
X5675629Y5332476D01*
X5661913Y5328157D01*
X5652770Y5319013D01*
X5648197Y5305297D01*
X5461000Y5623052D02*
G01*
X5461000Y5527547D01*
X5461000Y5623052D02*
G01*
X5492750Y5623052D01*
X5506465Y5618479D01*
X5515609Y5609336D01*
X5520181Y5600192D01*
X5524754Y5586476D01*
X5524754Y5563870D01*
X5520181Y5550154D01*
X5515609Y5541010D01*
X5506465Y5532120D01*
X5492750Y5527547D01*
X5461000Y5527547D01*
X5559297Y5600192D02*
G01*
X5559297Y5604763D01*
X5563615Y5613907D01*
X5568188Y5618479D01*
X5577331Y5623052D01*
X5595620Y5623052D01*
X5604509Y5618479D01*
X5609081Y5613907D01*
X5613654Y5604763D01*
X5613654Y5595620D01*
X5609081Y5586476D01*
X5600191Y5573013D01*
X5554725Y5527547D01*
X5618225Y5527547D01*
X5702808Y5623052D02*
G01*
X5657341Y5623052D01*
X5652770Y5582157D01*
X5657341Y5586476D01*
X5671058Y5591047D01*
X5684520Y5591047D01*
X5698236Y5586476D01*
X5707379Y5577586D01*
X5711952Y5563870D01*
X5711952Y5554726D01*
X5707379Y5541010D01*
X5698236Y5532120D01*
X5684520Y5527547D01*
X5671058Y5527547D01*
X5657341Y5532120D01*
X5652770Y5536692D01*
X5648197Y5545581D01*
X7493000Y5623052D02*
G01*
X7493000Y5527547D01*
X7493000Y5623052D02*
G01*
X7524750Y5623052D01*
X7538465Y5618479D01*
X7547609Y5609336D01*
X7552181Y5600192D01*
X7556754Y5586476D01*
X7556754Y5563870D01*
X7552181Y5550154D01*
X7547609Y5541010D01*
X7538465Y5532120D01*
X7524750Y5527547D01*
X7493000Y5527547D01*
X7613904Y5623052D02*
G01*
X7600188Y5618479D01*
X7591297Y5604763D01*
X7586725Y5582157D01*
X7586725Y5568442D01*
X7591297Y5545581D01*
X7600188Y5532120D01*
X7613904Y5527547D01*
X7623047Y5527547D01*
X7636509Y5532120D01*
X7645654Y5545581D01*
X7650225Y5568442D01*
X7650225Y5582157D01*
X7645654Y5604763D01*
X7636509Y5618479D01*
X7623047Y5623052D01*
X7613904Y5623052D01*
X7734808Y5623052D02*
G01*
X7689341Y5623052D01*
X7684770Y5582157D01*
X7689341Y5586476D01*
X7703058Y5591047D01*
X7716520Y5591047D01*
X7730236Y5586476D01*
X7739379Y5577586D01*
X7743952Y5563870D01*
X7743952Y5554726D01*
X7739379Y5541010D01*
X7730236Y5532120D01*
X7716520Y5527547D01*
X7703058Y5527547D01*
X7689341Y5532120D01*
X7684770Y5536692D01*
X7680197Y5545581D01*
X7157521Y5383900D02*
G01*
X7162520Y5288526D01*
X7157521Y5383900D02*
G01*
X7189228Y5385562D01*
X7203165Y5381713D01*
X7212761Y5373314D01*
X7217806Y5364421D01*
X7223089Y5350964D01*
X7224273Y5328389D01*
X7220424Y5314452D01*
X7216338Y5305082D01*
X7207684Y5295470D01*
X7194227Y5290187D01*
X7162520Y5288526D01*
X7252063Y5370796D02*
G01*
X7260701Y5375826D01*
X7273693Y5389989D01*
X7278692Y5294614D01*
X7367292Y5394893D02*
G01*
X7326886Y5297139D01*
X7303625Y5391556D02*
G01*
X7367292Y5394893D01*
X7477942Y5419006D02*
G01*
X7403884Y5269382D01*
X7540536Y5403971D02*
G01*
X7545534Y5308600D01*
X7508829Y5402310D02*
G01*
X7572496Y5405648D01*
X7602428Y5407215D02*
G01*
X7670838Y5315165D01*
X7665841Y5410540D02*
G01*
X7607427Y5311843D01*
X7701521Y5389773D02*
G01*
X7701282Y5394337D01*
X7705382Y5403456D01*
X7709707Y5408259D01*
X7718600Y5413303D01*
X7736608Y5414248D01*
X7745981Y5410161D01*
X7750784Y5405833D01*
X7755816Y5397195D01*
X7756296Y5388063D01*
X7752206Y5378693D01*
X7743794Y5364518D01*
X7700769Y5316735D01*
X7764437Y5320070D01*
X7157521Y5129900D02*
G01*
X7162520Y5034526D01*
X7157521Y5129900D02*
G01*
X7189228Y5131562D01*
X7203165Y5127713D01*
X7212761Y5119314D01*
X7217806Y5110421D01*
X7223089Y5096964D01*
X7224273Y5074389D01*
X7220424Y5060452D01*
X7216338Y5051082D01*
X7207684Y5041470D01*
X7194227Y5036187D01*
X7162520Y5034526D01*
X7252063Y5116796D02*
G01*
X7260701Y5121826D01*
X7273693Y5135989D01*
X7278692Y5040614D01*
X7358865Y5126972D02*
G01*
X7353835Y5135610D01*
X7339898Y5139458D01*
X7331021Y5138991D01*
X7317562Y5133708D01*
X7309134Y5119786D01*
X7305766Y5096718D01*
X7306950Y5074142D01*
X7312472Y5056118D01*
X7322083Y5047467D01*
X7336017Y5043619D01*
X7340584Y5043858D01*
X7353787Y5049128D01*
X7362441Y5058737D01*
X7366289Y5072674D01*
X7366050Y5077241D01*
X7360780Y5090444D01*
X7351168Y5099098D01*
X7337485Y5102959D01*
X7332921Y5102720D01*
X7319464Y5097437D01*
X7310810Y5087825D01*
X7306950Y5074142D01*
X7473375Y5164764D02*
G01*
X7399317Y5015143D01*
X7504264Y5148071D02*
G01*
X7509263Y5052697D01*
X7504264Y5148071D02*
G01*
X7545103Y5150213D01*
X7559040Y5146365D01*
X7563843Y5142036D01*
X7568874Y5133398D01*
X7569354Y5124267D01*
X7565265Y5114897D01*
X7560939Y5110091D01*
X7547483Y5104808D01*
X7506644Y5102666D01*
X7538351Y5104330D02*
G01*
X7572928Y5056035D01*
X7597861Y5152976D02*
G01*
X7666273Y5060927D01*
X7661275Y5156301D02*
G01*
X7602860Y5057604D01*
X7696954Y5135532D02*
G01*
X7696715Y5140098D01*
X7700815Y5149214D01*
X7705143Y5154020D01*
X7714035Y5159065D01*
X7732298Y5160022D01*
X7741414Y5155923D01*
X7746220Y5151594D01*
X7751251Y5142956D01*
X7751729Y5133825D01*
X7747642Y5124455D01*
X7739227Y5110279D01*
X7696459Y5062509D01*
X7759870Y5065831D01*
X7493000Y4861052D02*
G01*
X7493000Y4765547D01*
X7493000Y4861052D02*
G01*
X7524750Y4861052D01*
X7538465Y4856479D01*
X7547609Y4847336D01*
X7552181Y4838192D01*
X7556754Y4824476D01*
X7556754Y4801870D01*
X7552181Y4788154D01*
X7547609Y4779010D01*
X7538465Y4770120D01*
X7524750Y4765547D01*
X7493000Y4765547D01*
X7613904Y4861052D02*
G01*
X7600188Y4856479D01*
X7591297Y4842763D01*
X7586725Y4820157D01*
X7586725Y4806442D01*
X7591297Y4783581D01*
X7600188Y4770120D01*
X7613904Y4765547D01*
X7623047Y4765547D01*
X7636509Y4770120D01*
X7645654Y4783581D01*
X7650225Y4806442D01*
X7650225Y4820157D01*
X7645654Y4842763D01*
X7636509Y4856479D01*
X7623047Y4861052D01*
X7613904Y4861052D01*
X7725663Y4861052D02*
G01*
X7680197Y4797297D01*
X7748524Y4797297D01*
X7725663Y4861052D02*
G01*
X7725663Y4765547D01*
X7493000Y4607052D02*
G01*
X7493000Y4511547D01*
X7493000Y4607052D02*
G01*
X7524750Y4607052D01*
X7538465Y4602479D01*
X7547609Y4593336D01*
X7552181Y4584192D01*
X7556754Y4570476D01*
X7556754Y4547870D01*
X7552181Y4534154D01*
X7547609Y4525010D01*
X7538465Y4516120D01*
X7524750Y4511547D01*
X7493000Y4511547D01*
X7613904Y4607052D02*
G01*
X7600188Y4602479D01*
X7591297Y4588763D01*
X7586725Y4566157D01*
X7586725Y4552442D01*
X7591297Y4529581D01*
X7600188Y4516120D01*
X7613904Y4511547D01*
X7623047Y4511547D01*
X7636509Y4516120D01*
X7645654Y4529581D01*
X7650225Y4552442D01*
X7650225Y4566157D01*
X7645654Y4588763D01*
X7636509Y4602479D01*
X7623047Y4607052D01*
X7613904Y4607052D01*
X7684770Y4584192D02*
G01*
X7684770Y4588763D01*
X7689341Y4597907D01*
X7693913Y4602479D01*
X7703058Y4607052D01*
X7721091Y4607052D01*
X7730236Y4602479D01*
X7734808Y4597907D01*
X7739379Y4588763D01*
X7739379Y4579620D01*
X7734808Y4570476D01*
X7725663Y4557013D01*
X7680197Y4511547D01*
X7743952Y4511547D01*
X7493000Y4378452D02*
G01*
X7493000Y4282947D01*
X7493000Y4378452D02*
G01*
X7524750Y4378452D01*
X7538465Y4373879D01*
X7547609Y4364736D01*
X7552181Y4355592D01*
X7556754Y4341876D01*
X7556754Y4319270D01*
X7552181Y4305554D01*
X7547609Y4296410D01*
X7538465Y4287520D01*
X7524750Y4282947D01*
X7493000Y4282947D01*
X7586725Y4360163D02*
G01*
X7595615Y4364736D01*
X7609331Y4378452D01*
X7609331Y4282947D01*
X7693913Y4378452D02*
G01*
X7648447Y4378452D01*
X7643875Y4337557D01*
X7648447Y4341876D01*
X7662163Y4346447D01*
X7675625Y4346447D01*
X7689341Y4341876D01*
X7698486Y4332986D01*
X7703058Y4319270D01*
X7703058Y4310126D01*
X7698486Y4296410D01*
X7689341Y4287520D01*
X7675625Y4282947D01*
X7662163Y4282947D01*
X7648447Y4287520D01*
X7643875Y4292092D01*
X7639304Y4300981D01*
X7493000Y5877052D02*
G01*
X7493000Y5781547D01*
X7493000Y5877052D02*
G01*
X7524750Y5877052D01*
X7538465Y5872479D01*
X7547609Y5863336D01*
X7552181Y5854192D01*
X7556754Y5840476D01*
X7556754Y5817870D01*
X7552181Y5804154D01*
X7547609Y5795010D01*
X7538465Y5786120D01*
X7524750Y5781547D01*
X7493000Y5781547D01*
X7586725Y5858763D02*
G01*
X7595615Y5863336D01*
X7609331Y5877052D01*
X7609331Y5781547D01*
X7662163Y5877052D02*
G01*
X7648447Y5872479D01*
X7643875Y5863336D01*
X7643875Y5854192D01*
X7648447Y5845047D01*
X7657591Y5840476D01*
X7675625Y5836157D01*
X7689341Y5831586D01*
X7698486Y5822442D01*
X7703058Y5813297D01*
X7703058Y5799581D01*
X7698486Y5790692D01*
X7693913Y5786120D01*
X7680197Y5781547D01*
X7662163Y5781547D01*
X7648447Y5786120D01*
X7643875Y5790692D01*
X7639304Y5799581D01*
X7639304Y5813297D01*
X7643875Y5822442D01*
X7653020Y5831586D01*
X7666736Y5836157D01*
X7684770Y5840476D01*
X7693913Y5845047D01*
X7698486Y5854192D01*
X7698486Y5863336D01*
X7693913Y5872479D01*
X7680197Y5877052D01*
X7662163Y5877052D01*
X7493000Y6131052D02*
G01*
X7493000Y6035547D01*
X7493000Y6131052D02*
G01*
X7524750Y6131052D01*
X7538465Y6126479D01*
X7547609Y6117336D01*
X7552181Y6108192D01*
X7556754Y6094476D01*
X7556754Y6071870D01*
X7552181Y6058154D01*
X7547609Y6049010D01*
X7538465Y6040120D01*
X7524750Y6035547D01*
X7493000Y6035547D01*
X7586725Y6112763D02*
G01*
X7595615Y6117336D01*
X7609331Y6131052D01*
X7609331Y6035547D01*
X7698486Y6099047D02*
G01*
X7693913Y6085586D01*
X7684770Y6076442D01*
X7671308Y6071870D01*
X7666736Y6071870D01*
X7653020Y6076442D01*
X7643875Y6085586D01*
X7639304Y6099047D01*
X7639304Y6103620D01*
X7643875Y6117336D01*
X7653020Y6126479D01*
X7666736Y6131052D01*
X7671308Y6131052D01*
X7684770Y6126479D01*
X7693913Y6117336D01*
X7698486Y6099047D01*
X7698486Y6076442D01*
X7693913Y6053581D01*
X7684770Y6040120D01*
X7671308Y6035547D01*
X7662163Y6035547D01*
X7648447Y6040120D01*
X7643875Y6049010D01*
X7493000Y6385052D02*
G01*
X7493000Y6289547D01*
X7493000Y6385052D02*
G01*
X7524750Y6385052D01*
X7538465Y6380479D01*
X7547609Y6371336D01*
X7552181Y6362192D01*
X7556754Y6348476D01*
X7556754Y6325870D01*
X7552181Y6312154D01*
X7547609Y6303010D01*
X7538465Y6294120D01*
X7524750Y6289547D01*
X7493000Y6289547D01*
X7591297Y6362192D02*
G01*
X7591297Y6366763D01*
X7595615Y6375907D01*
X7600188Y6380479D01*
X7609331Y6385052D01*
X7627620Y6385052D01*
X7636509Y6380479D01*
X7641081Y6375907D01*
X7645654Y6366763D01*
X7645654Y6357620D01*
X7641081Y6348476D01*
X7632191Y6335013D01*
X7586725Y6289547D01*
X7650225Y6289547D01*
X7680197Y6366763D02*
G01*
X7689341Y6371336D01*
X7703058Y6385052D01*
X7703058Y6289547D01*
X6553200Y6654037D02*
G01*
X6553200Y6558787D01*
X6553200Y6654037D02*
G01*
X6594093Y6654037D01*
X6607809Y6649465D01*
X6612381Y6645147D01*
X6616954Y6636004D01*
X6616954Y6626860D01*
X6612381Y6617715D01*
X6607809Y6613144D01*
X6594093Y6608571D01*
X6553200Y6608571D01*
X6584950Y6608571D02*
G01*
X6616954Y6558787D01*
X6646925Y6654037D02*
G01*
X6710425Y6558787D01*
X6710425Y6654037D02*
G01*
X6646925Y6558787D01*
X6740397Y6654037D02*
G01*
X6740397Y6558787D01*
X6740397Y6654037D02*
G01*
X6772402Y6654037D01*
X6785863Y6649465D01*
X6795008Y6640576D01*
X6799579Y6631431D01*
X6804152Y6617715D01*
X6804152Y6595110D01*
X6799579Y6581394D01*
X6795008Y6572250D01*
X6785863Y6563105D01*
X6772402Y6558787D01*
X6740397Y6558787D01*
X6861302Y6654037D02*
G01*
X6847840Y6649465D01*
X6838695Y6636004D01*
X6834124Y6613144D01*
X6834124Y6599681D01*
X6838695Y6576821D01*
X6847840Y6563105D01*
X6861302Y6558787D01*
X6870445Y6558787D01*
X6884161Y6563105D01*
X6893306Y6576821D01*
X6897624Y6599681D01*
X6897624Y6613144D01*
X6893306Y6636004D01*
X6884161Y6649465D01*
X6870445Y6654037D01*
X6861302Y6654037D01*
X7009638Y6672326D02*
G01*
X6927850Y6526784D01*
X7039609Y6654037D02*
G01*
X7039609Y6558787D01*
X7039609Y6654037D02*
G01*
X7071359Y6654037D01*
X7085075Y6649465D01*
X7094220Y6640576D01*
X7098538Y6631431D01*
X7103109Y6617715D01*
X7103109Y6595110D01*
X7098538Y6581394D01*
X7094220Y6572250D01*
X7085075Y6563105D01*
X7071359Y6558787D01*
X7039609Y6558787D01*
X7142225Y6654037D02*
G01*
X7192263Y6654037D01*
X7165086Y6617715D01*
X7178547Y6617715D01*
X7187691Y6613144D01*
X7192263Y6608571D01*
X7196836Y6595110D01*
X7196836Y6585965D01*
X7192263Y6572250D01*
X7183120Y6563105D01*
X7169658Y6558787D01*
X7155941Y6558787D01*
X7142225Y6563105D01*
X7137654Y6567678D01*
X7133081Y6576821D01*
X7378700Y6672326D02*
G01*
X7296911Y6526784D01*
X7478775Y6654037D02*
G01*
X7478775Y6558787D01*
X7478775Y6654037D02*
G01*
X7519670Y6654037D01*
X7533131Y6649465D01*
X7537704Y6645147D01*
X7542275Y6636004D01*
X7542275Y6626860D01*
X7537704Y6617715D01*
X7533131Y6613144D01*
X7519670Y6608571D01*
X7478775Y6608571D01*
X7510525Y6608571D02*
G01*
X7542275Y6558787D01*
X7572247Y6654037D02*
G01*
X7636002Y6558787D01*
X7636002Y6654037D02*
G01*
X7572247Y6558787D01*
X7693152Y6654037D02*
G01*
X7679436Y6649465D01*
X7670545Y6636004D01*
X7665974Y6613144D01*
X7665974Y6599681D01*
X7670545Y6576821D01*
X7679436Y6563105D01*
X7693152Y6558787D01*
X7702295Y6558787D01*
X7716011Y6563105D01*
X7724902Y6576821D01*
X7729474Y6599681D01*
X7729474Y6613144D01*
X7724902Y6636004D01*
X7716011Y6649465D01*
X7702295Y6654037D01*
X7693152Y6654037D01*
X6635750Y6908037D02*
G01*
X6635750Y6812787D01*
X6604000Y6908037D02*
G01*
X6667754Y6908037D01*
X6697725Y6908037D02*
G01*
X6761225Y6812787D01*
X6761225Y6908037D02*
G01*
X6697725Y6812787D01*
X6791197Y6908037D02*
G01*
X6791197Y6812787D01*
X6791197Y6908037D02*
G01*
X6823202Y6908037D01*
X6836663Y6903465D01*
X6845808Y6894576D01*
X6850379Y6885431D01*
X6854952Y6871715D01*
X6854952Y6849110D01*
X6850379Y6835394D01*
X6845808Y6826250D01*
X6836663Y6817105D01*
X6823202Y6812787D01*
X6791197Y6812787D01*
X6912102Y6908037D02*
G01*
X6898640Y6903465D01*
X6889495Y6890004D01*
X6884924Y6867144D01*
X6884924Y6853681D01*
X6889495Y6830821D01*
X6898640Y6817105D01*
X6912102Y6812787D01*
X6921245Y6812787D01*
X6934961Y6817105D01*
X6944106Y6830821D01*
X6948424Y6853681D01*
X6948424Y6867144D01*
X6944106Y6890004D01*
X6934961Y6903465D01*
X6921245Y6908037D01*
X6912102Y6908037D01*
X7060438Y6926326D02*
G01*
X6978650Y6780784D01*
X7090409Y6908037D02*
G01*
X7090409Y6812787D01*
X7090409Y6908037D02*
G01*
X7122159Y6908037D01*
X7135875Y6903465D01*
X7145020Y6894576D01*
X7149338Y6885431D01*
X7153909Y6871715D01*
X7153909Y6849110D01*
X7149338Y6835394D01*
X7145020Y6826250D01*
X7135875Y6817105D01*
X7122159Y6812787D01*
X7090409Y6812787D01*
X7183881Y6890004D02*
G01*
X7193025Y6894576D01*
X7206741Y6908037D01*
X7206741Y6812787D01*
X7388606Y6926326D02*
G01*
X7306818Y6780784D01*
X7520431Y6908037D02*
G01*
X7520431Y6812787D01*
X7488427Y6908037D02*
G01*
X7552181Y6908037D01*
X7582154Y6908037D02*
G01*
X7645908Y6812787D01*
X7645908Y6908037D02*
G01*
X7582154Y6812787D01*
X7703058Y6908037D02*
G01*
X7689341Y6903465D01*
X7680452Y6890004D01*
X7675879Y6867144D01*
X7675879Y6853681D01*
X7680452Y6830821D01*
X7689341Y6817105D01*
X7703058Y6812787D01*
X7712202Y6812787D01*
X7725918Y6817105D01*
X7734808Y6830821D01*
X7739379Y6853681D01*
X7739379Y6867144D01*
X7734808Y6890004D01*
X7725918Y6903465D01*
X7712202Y6908037D01*
X7703058Y6908037D01*
X7493000Y7147052D02*
G01*
X7493000Y7051547D01*
X7493000Y7147052D02*
G01*
X7524750Y7147052D01*
X7538465Y7142479D01*
X7547609Y7133336D01*
X7552181Y7124192D01*
X7556754Y7110476D01*
X7556754Y7087870D01*
X7552181Y7074154D01*
X7547609Y7065010D01*
X7538465Y7056120D01*
X7524750Y7051547D01*
X7493000Y7051547D01*
X7591297Y7124192D02*
G01*
X7591297Y7128763D01*
X7595615Y7137908D01*
X7600188Y7142479D01*
X7609331Y7147052D01*
X7627620Y7147052D01*
X7636509Y7142479D01*
X7641081Y7137908D01*
X7645654Y7128763D01*
X7645654Y7119620D01*
X7641081Y7110476D01*
X7632191Y7097013D01*
X7586725Y7051547D01*
X7650225Y7051547D01*
X7684770Y7124192D02*
G01*
X7684770Y7128763D01*
X7689341Y7137908D01*
X7693913Y7142479D01*
X7703058Y7147052D01*
X7721091Y7147052D01*
X7730236Y7142479D01*
X7734808Y7137908D01*
X7739379Y7128763D01*
X7739379Y7119620D01*
X7734808Y7110476D01*
X7725663Y7097013D01*
X7680197Y7051547D01*
X7743952Y7051547D01*
X7493000Y7401052D02*
G01*
X7493000Y7305547D01*
X7493000Y7401052D02*
G01*
X7524750Y7401052D01*
X7538465Y7396479D01*
X7547609Y7387336D01*
X7552181Y7378192D01*
X7556754Y7364476D01*
X7556754Y7341870D01*
X7552181Y7328154D01*
X7547609Y7319010D01*
X7538465Y7310120D01*
X7524750Y7305547D01*
X7493000Y7305547D01*
X7591297Y7378192D02*
G01*
X7591297Y7382763D01*
X7595615Y7391908D01*
X7600188Y7396479D01*
X7609331Y7401052D01*
X7627620Y7401052D01*
X7636509Y7396479D01*
X7641081Y7391908D01*
X7645654Y7382763D01*
X7645654Y7373620D01*
X7641081Y7364476D01*
X7632191Y7351013D01*
X7586725Y7305547D01*
X7650225Y7305547D01*
X7689341Y7401052D02*
G01*
X7739379Y7401052D01*
X7712202Y7364476D01*
X7725663Y7364476D01*
X7734808Y7360158D01*
X7739379Y7355586D01*
X7743952Y7341870D01*
X7743952Y7332726D01*
X7739379Y7319010D01*
X7730236Y7310120D01*
X7716520Y7305547D01*
X7703058Y7305547D01*
X7689341Y7310120D01*
X7684770Y7314692D01*
X7680197Y7323581D01*
X7561072Y4076192D02*
G01*
X7556754Y4085336D01*
X7547609Y4094479D01*
X7538465Y4099052D01*
X7520177Y4099052D01*
X7511288Y4094479D01*
X7502143Y4085336D01*
X7497572Y4076192D01*
X7493000Y4062476D01*
X7493000Y4039870D01*
X7497572Y4026154D01*
X7502143Y4017010D01*
X7511288Y4008120D01*
X7520177Y4003547D01*
X7538465Y4003547D01*
X7547609Y4008120D01*
X7556754Y4017010D01*
X7561072Y4026154D01*
X7561072Y4039870D01*
X7538465Y4039870D02*
G01*
X7561072Y4039870D01*
X7591297Y4099052D02*
G01*
X7591297Y4003547D01*
X7591297Y4099052D02*
G01*
X7654797Y4003547D01*
X7654797Y4099052D02*
G01*
X7654797Y4003547D01*
X7684770Y4099052D02*
G01*
X7684770Y4003547D01*
X7684770Y4099052D02*
G01*
X7716520Y4099052D01*
X7730236Y4094479D01*
X7739379Y4085336D01*
X7743952Y4076192D01*
X7748524Y4062476D01*
X7748524Y4039870D01*
X7743952Y4026154D01*
X7739379Y4017010D01*
X7730236Y4008120D01*
X7716520Y4003547D01*
X7684770Y4003547D01*
X7502143Y3845052D02*
G01*
X7552181Y3845052D01*
X7524750Y3808476D01*
X7538465Y3808476D01*
X7547609Y3804157D01*
X7552181Y3799586D01*
X7556754Y3785870D01*
X7556754Y3776726D01*
X7552181Y3763010D01*
X7543038Y3754120D01*
X7529322Y3749547D01*
X7515606Y3749547D01*
X7502143Y3754120D01*
X7497572Y3758692D01*
X7493000Y3767581D01*
X7586725Y3845052D02*
G01*
X7623047Y3749547D01*
X7659370Y3845052D02*
G01*
X7623047Y3749547D01*
X7698486Y3845052D02*
G01*
X7748524Y3845052D01*
X7721091Y3808476D01*
X7734808Y3808476D01*
X7743952Y3804157D01*
X7748524Y3799586D01*
X7753095Y3785870D01*
X7753095Y3776726D01*
X7748524Y3763010D01*
X7739379Y3754120D01*
X7725663Y3749547D01*
X7712202Y3749547D01*
X7698486Y3754120D01*
X7693913Y3758692D01*
X7689341Y3767581D01*
X5461000Y3845052D02*
G01*
X5497322Y3749547D01*
X5533643Y3845052D02*
G01*
X5497322Y3749547D01*
X5563615Y3845052D02*
G01*
X5563615Y3749547D01*
X5593841Y3845052D02*
G01*
X5593841Y3749547D01*
X5593841Y3845052D02*
G01*
X5657341Y3749547D01*
X5657341Y3845052D02*
G01*
X5657341Y3749547D01*
X5529072Y4076192D02*
G01*
X5524754Y4085336D01*
X5515609Y4094479D01*
X5506465Y4099052D01*
X5488177Y4099052D01*
X5479288Y4094479D01*
X5470143Y4085336D01*
X5465572Y4076192D01*
X5461000Y4062476D01*
X5461000Y4039870D01*
X5465572Y4026154D01*
X5470143Y4017010D01*
X5479288Y4008120D01*
X5488177Y4003547D01*
X5506465Y4003547D01*
X5515609Y4008120D01*
X5524754Y4017010D01*
X5529072Y4026154D01*
X5529072Y4039870D01*
X5506465Y4039870D02*
G01*
X5529072Y4039870D01*
X5559297Y4099052D02*
G01*
X5559297Y4003547D01*
X5559297Y4099052D02*
G01*
X5622797Y4003547D01*
X5622797Y4099052D02*
G01*
X5622797Y4003547D01*
X5652770Y4099052D02*
G01*
X5652770Y4003547D01*
X5652770Y4099052D02*
G01*
X5684520Y4099052D01*
X5698236Y4094479D01*
X5707379Y4085336D01*
X5711952Y4076192D01*
X5716524Y4062476D01*
X5716524Y4039870D01*
X5711952Y4026154D01*
X5707379Y4017010D01*
X5698236Y4008120D01*
X5684520Y4003547D01*
X5652770Y4003547D01*
D10*
X5093715Y5359397D02*
G01*
X4984750Y5359397D01*
X5093715Y5359397D02*
G01*
X5093715Y5291833D01*
X5041900Y5359397D02*
G01*
X5041900Y5317741D01*
X4984750Y5359397D02*
G01*
X4984750Y5291833D01*
X5078222Y5184899D02*
G01*
X5088636Y5195313D01*
X5093715Y5210807D01*
X5093715Y5231635D01*
X5088636Y5247129D01*
X5078222Y5257543D01*
X5067808Y5257543D01*
X5057393Y5252463D01*
X5052059Y5247129D01*
X5046979Y5236715D01*
X5036565Y5205727D01*
X5031486Y5195313D01*
X5026152Y5189979D01*
X5015738Y5184899D01*
X5000243Y5184899D01*
X4989829Y5195313D01*
X4984750Y5210807D01*
X4984750Y5231635D01*
X4989829Y5247129D01*
X5000243Y5257543D01*
X5093715Y5150609D02*
G01*
X4984750Y5150609D01*
X5093715Y5150609D02*
G01*
X5093715Y5103873D01*
X5088636Y5088125D01*
X5083302Y5083045D01*
X5072888Y5077711D01*
X5057393Y5077711D01*
X5046979Y5083045D01*
X5041900Y5088125D01*
X5036565Y5103873D01*
X5036565Y5150609D01*
X5093715Y5033007D02*
G01*
X5093715Y4975857D01*
X5052059Y5007099D01*
X5052059Y4991605D01*
X5046979Y4981191D01*
X5041900Y4975857D01*
X5026152Y4970777D01*
X5015738Y4970777D01*
X5000243Y4975857D01*
X4989829Y4986271D01*
X4984750Y5002019D01*
X4984750Y5017513D01*
X4989829Y5033007D01*
X4994909Y5038341D01*
X5005324Y5043421D01*
X5067808Y4931407D02*
G01*
X5072888Y4931407D01*
X5083302Y4926073D01*
X5088636Y4920993D01*
X5093715Y4910579D01*
X5093715Y4889751D01*
X5088636Y4879337D01*
X5083302Y4874257D01*
X5072888Y4868923D01*
X5062474Y4868923D01*
X5052059Y4874257D01*
X5036565Y4884417D01*
X4984750Y4936487D01*
X4984750Y4863843D01*
X5067808Y4751575D02*
G01*
X5078222Y4756655D01*
X5088636Y4767069D01*
X5093715Y4777483D01*
X5093715Y4798311D01*
X5088636Y4808725D01*
X5078222Y4819139D01*
X5067808Y4824219D01*
X5052059Y4829553D01*
X5026152Y4829553D01*
X5010658Y4824219D01*
X5000243Y4819139D01*
X4989829Y4808725D01*
X4984750Y4798311D01*
X4984750Y4777483D01*
X4989829Y4767069D01*
X5000243Y4756655D01*
X5010658Y4751575D01*
X5093715Y4675629D02*
G01*
X4984750Y4717285D01*
X5093715Y4675629D02*
G01*
X4984750Y4634227D01*
X5021072Y4701537D02*
G01*
X5021072Y4649721D01*
X5093715Y4599937D02*
G01*
X4984750Y4599937D01*
X5093715Y4599937D02*
G01*
X4984750Y4558281D01*
X5093715Y4516625D02*
G01*
X4984750Y4558281D01*
X5093715Y4516625D02*
G01*
X4984750Y4516625D01*
X11189715Y5232400D02*
G01*
X11080750Y5232400D01*
X11189715Y5159755D02*
G01*
X11117072Y5232400D01*
X11142979Y5206492D02*
G01*
X11080750Y5159755D01*
X11189715Y5125465D02*
G01*
X11080750Y5125465D01*
X11189715Y5125465D02*
G01*
X11189715Y5057902D01*
X11137900Y5125465D02*
G01*
X11137900Y5083810D01*
X11080750Y5125465D02*
G01*
X11080750Y5057902D01*
X11189715Y5023612D02*
G01*
X11137900Y4981955D01*
X11080750Y4981955D01*
X11189715Y4940300D02*
G01*
X11137900Y4981955D01*
X11189715Y4906010D02*
G01*
X11080750Y4906010D01*
X11189715Y4906010D02*
G01*
X11189715Y4859273D01*
X11184636Y4843779D01*
X11179302Y4838700D01*
X11168888Y4833365D01*
X11158474Y4833365D01*
X11148059Y4838700D01*
X11142979Y4843779D01*
X11137900Y4859273D01*
X11137900Y4906010D02*
G01*
X11137900Y4859273D01*
X11132565Y4843779D01*
X11127486Y4838700D01*
X11117072Y4833365D01*
X11101324Y4833365D01*
X11090909Y4838700D01*
X11085829Y4843779D01*
X11080750Y4859273D01*
X11080750Y4906010D01*
X11189715Y4767834D02*
G01*
X11184636Y4778247D01*
X11174222Y4788662D01*
X11163808Y4793995D01*
X11148059Y4799076D01*
X11122152Y4799076D01*
X11106658Y4793995D01*
X11096243Y4788662D01*
X11085829Y4778247D01*
X11080750Y4767834D01*
X11080750Y4747260D01*
X11085829Y4736845D01*
X11096243Y4726431D01*
X11106658Y4721097D01*
X11122152Y4716018D01*
X11148059Y4716018D01*
X11163808Y4721097D01*
X11174222Y4726431D01*
X11184636Y4736845D01*
X11189715Y4747260D01*
X11189715Y4767834D01*
X11189715Y4640071D02*
G01*
X11080750Y4681728D01*
X11189715Y4640071D02*
G01*
X11080750Y4598670D01*
X11117072Y4665979D02*
G01*
X11117072Y4614163D01*
X11189715Y4564379D02*
G01*
X11080750Y4564379D01*
X11189715Y4564379D02*
G01*
X11189715Y4517389D01*
X11184636Y4501895D01*
X11179302Y4496815D01*
X11168888Y4491481D01*
X11158474Y4491481D01*
X11148059Y4496815D01*
X11142979Y4501895D01*
X11137900Y4517389D01*
X11137900Y4564379D01*
X11137900Y4527804D02*
G01*
X11080750Y4491481D01*
X11189715Y4457192D02*
G01*
X11080750Y4457192D01*
X11189715Y4457192D02*
G01*
X11189715Y4420870D01*
X11184636Y4405376D01*
X11174222Y4394962D01*
X11163808Y4389628D01*
X11148059Y4384547D01*
X11122152Y4384547D01*
X11106658Y4389628D01*
X11096243Y4394962D01*
X11085829Y4405376D01*
X11080750Y4420870D01*
X11080750Y4457192D01*
X11168888Y4350257D02*
G01*
X11174222Y4339844D01*
X11189715Y4324350D01*
X11080750Y4324350D01*
X11189715Y7645400D02*
G01*
X11080750Y7645400D01*
X11189715Y7645400D02*
G01*
X11189715Y7598663D01*
X11184636Y7583170D01*
X11179302Y7577836D01*
X11168888Y7572755D01*
X11158474Y7572755D01*
X11148059Y7577836D01*
X11142979Y7583170D01*
X11137900Y7598663D01*
X11137900Y7645400D01*
X11137900Y7609078D02*
G01*
X11080750Y7572755D01*
X11189715Y7538465D02*
G01*
X11080750Y7538465D01*
X11189715Y7538465D02*
G01*
X11189715Y7470902D01*
X11137900Y7538465D02*
G01*
X11137900Y7496810D01*
X11080750Y7538465D02*
G01*
X11080750Y7470902D01*
X11189715Y7436612D02*
G01*
X11080750Y7436612D01*
X11080750Y7436612D02*
G01*
X11080750Y7374128D01*
X11189715Y7298436D02*
G01*
X11080750Y7339837D01*
X11189715Y7298436D02*
G01*
X11080750Y7256779D01*
X11117072Y7324344D02*
G01*
X11117072Y7272273D01*
X11189715Y7222489D02*
G01*
X11137900Y7180834D01*
X11080750Y7180834D01*
X11189715Y7139431D02*
G01*
X11137900Y7180834D01*
X11189715Y7105142D02*
G01*
X11080750Y7105142D01*
X11189715Y7070852D02*
G01*
X11080750Y7070852D01*
X11189715Y7070852D02*
G01*
X11080750Y6997954D01*
X11189715Y6997954D02*
G01*
X11080750Y6997954D01*
D13*
X4064000Y3175000D02*
G01*
X3746500Y3175000D01*
D12*
X4064000Y3175000D02*
G01*
X4064000Y2921000D01*
X3556000Y2921000D01*
X3556000Y3175000D01*
X3746500Y3175000D01*
D13*
X4318000Y7747000D02*
G01*
X4000500Y7747000D01*
D12*
X4318000Y7747000D02*
G01*
X4318000Y7493000D01*
X3810000Y7493000D01*
X3810000Y7747000D01*
X4000500Y7747000D01*
X2032000Y7493000D02*
G01*
X2032000Y7241539D01*
X1524000Y7241539D01*
X1524000Y7493000D01*
X2032000Y7493000D01*
X8763000Y2794000D02*
G01*
X8511540Y2794000D01*
X8511540Y3302000D01*
X8763000Y3302000D01*
X8763000Y2794000D01*
D14*
X7997764Y3022549D02*
G01*
X8000987Y7797800D01*
X6197587Y2819400D02*
G01*
X6197587Y3419398D01*
X6997585Y3419398D01*
X6997585Y2819400D01*
X5714987Y2895600D02*
G01*
X5714987Y3276600D01*
X5968987Y3276600D01*
X5968987Y2895600D01*
X5714987Y2895600D01*
X7492987Y3276600D02*
G01*
X7492987Y2895600D01*
X7238987Y2895600D01*
X7238987Y3276600D01*
X7492987Y3276600D01*
X5410187Y2819400D02*
G01*
X7797787Y2819400D01*
X5205938Y7797947D02*
G01*
X5206987Y3022600D01*
X5403977Y7970012D02*
G01*
X7797149Y7968272D01*
X7442187Y7382934D02*
G01*
X5765787Y7391400D01*
X5765787Y7874000D01*
X7442187Y7874000D01*
X7442187Y7391400D01*
X7111987Y7807388D02*
G01*
X7111987Y7451788D01*
X5841987Y7451788D02*
G01*
X5841987Y7807388D01*
X6095987Y7807388D01*
X6095987Y7604188D01*
X6349987Y7604188D01*
X6349987Y7807388D01*
X6603987Y7807388D01*
X6603987Y7604188D01*
X6857987Y7604188D01*
X6857987Y7807388D01*
X7365987Y7807388D01*
X7365987Y7451788D01*
D15*
X936002Y6683997D02*
G01*
X4935994Y6683997D01*
X4935994Y3984002D01*
X936002Y3984002D01*
X936002Y6683997D01*
D13*
X11049000Y4191000D02*
G01*
X11049000Y6032500D01*
D12*
X11049000Y4191000D02*
G01*
X10795000Y4191000D01*
X10795000Y6223000D01*
X11049000Y6223000D01*
X11049000Y6032500D01*
X11049000Y7810500D02*
G01*
X11049000Y8001000D01*
X10795000Y8001000D01*
X10795000Y7239000D01*
X11049000Y7239000D01*
D13*
X11049000Y7239000D02*
G01*
X11049000Y7810500D01*
D16*
G75*
G01*
X7415987Y3080537D02*
G03*
X7415962Y3079979I-49947J1991D01*
G75*
G01*
X5891987Y3080537D02*
G03*
X5891987Y3079979I-49986J-279D01*
D15*
G75*
G01*
X7772400Y7916113D02*
G03*
X7773152Y7916111I-110J-143688D01*
D14*
G75*
G01*
X5403977Y7970012D02*
G03*
X5205938Y7797947I0J-200000D01*
D15*
G75*
G01*
X5435600Y7899425D02*
G03*
X5436265Y7899423I-152J-127000D01*
D14*
G75*
G01*
X5207000Y3022303D02*
G03*
X5410190Y2819725I199983J-2604D01*
D15*
G75*
G01*
X5435600Y3166313D02*
G03*
X5436352Y3166311I-110J-143688D01*
G75*
G01*
X7772400Y3149625D02*
G03*
X7773065Y3149623I-152J-127000D01*
D14*
G75*
G01*
X7797787Y2819400D02*
G03*
X7997764Y3022549I2J200000D01*
G75*
G01*
X8000987Y7797800D02*
G03*
X7797150Y7968272I-197821J-29437D01*
M02*
